<svg width="32" height="32" viewBox="0 0 32 32" fill="none" xmlns="http://www.w3.org/2000/svg">
<path d="M7.72912 13.1288C7.31079 13.4088 6.94495 13.6547 6.57829 13.8997C6.37995 14.0322 6.18995 14.2047 5.92745 14.0555C5.68579 13.918 5.70245 13.6805 5.70245 13.4488C5.70329 12.5222 5.70995 11.5955 5.69829 10.6688C5.69495 10.3788 5.79245 10.1855 6.03745 10.0222C7.44995 9.08634 8.85079 8.13384 10.2633 7.19717C10.4483 7.07467 10.5225 6.95051 10.5208 6.72384C10.51 5.02634 10.5141 3.32884 10.515 1.63217C10.515 1.12884 10.6391 1.00551 11.14 1.00551C11.8375 1.00551 12.535 1.00301 13.2325 1.00551C13.6133 1.00717 13.755 1.15051 13.7558 1.53634C13.7583 2.61801 13.7566 3.69967 13.7566 4.78717C13.895 4.80051 13.9691 4.69884 14.0583 4.63967C15.2933 3.81301 16.53 2.98801 17.7575 2.14884C18.0258 1.96551 18.2475 1.95051 18.5233 2.13634C22.4375 4.77301 26.355 7.40384 30.2758 10.0313C30.4983 10.1805 30.5991 10.3572 30.5966 10.6238C30.5891 11.5922 30.5925 12.5605 30.5941 13.5288C30.5941 13.7447 30.5775 13.9463 30.355 14.063C30.1425 14.1738 29.9766 14.073 29.8083 13.9588C29.4141 13.6913 29.0191 13.4263 28.5683 13.123C28.5683 13.2838 28.5683 13.3913 28.5683 13.4988C28.5683 17.008 28.5683 20.5172 28.5683 24.0263C28.5683 24.5747 28.4633 24.6788 27.9141 24.6788C26.6133 24.6788 25.3125 24.6788 23.9716 24.6788C24.225 25.3097 24.4666 25.913 24.71 26.5163C24.8808 26.9397 25.0625 27.3588 25.2233 27.7863C25.6133 28.8188 25.1791 29.7955 24.1566 30.2047C23.1375 30.613 22.1533 30.2047 21.7275 29.1747C21.1441 27.7655 20.5733 26.3513 20.0091 24.9338C19.9316 24.7397 19.8441 24.6713 19.6308 24.673C18.1416 24.6838 16.6533 24.6797 15.1641 24.6772C14.9991 24.6772 14.9008 24.6772 14.8541 24.8997C14.7783 25.2622 14.135 25.7172 13.7658 25.6797C13.4108 25.6438 13.2183 25.753 13.1758 26.1097C13.1725 26.1388 13.155 26.1688 13.1383 26.1947C12.875 26.6322 12.7716 27.0172 13.2908 27.3905C13.5516 27.578 13.4633 28.4522 13.2316 28.703C13.1333 28.8105 13.0058 28.8963 12.9275 29.0155C12.5866 29.5313 12.08 29.5463 11.545 29.5038C11.2716 29.4822 11.1358 29.2705 10.975 29.1022C10.8425 28.963 10.7458 28.9205 10.5583 29.0272C10.3175 29.1647 10.05 29.2663 9.78329 29.3472C9.61662 29.398 9.55412 29.4788 9.58579 29.6347C9.70162 30.208 9.34745 30.543 8.96995 30.8672C8.87162 30.9522 8.75745 30.9938 8.62745 30.9922C8.45079 30.9905 8.27079 30.973 8.09662 30.9955C7.64412 31.0538 7.31329 30.8888 6.99912 30.5572C6.74579 30.2897 6.67912 30.0122 6.70995 29.6805C6.72829 29.4872 6.67579 29.3855 6.46995 29.3255C6.20329 29.248 5.94579 29.128 5.69745 29.0013C5.56245 28.9322 5.46579 28.9247 5.38245 29.053C5.06495 29.543 4.58079 29.5422 4.08079 29.5072C3.93829 29.4972 3.81829 29.4513 3.71829 29.3522C3.49662 29.1322 3.26995 28.9172 3.05745 28.688C2.77162 28.3797 2.78995 27.5388 3.12329 27.2555C3.42662 26.998 3.51412 26.7555 3.25912 26.4305C3.25329 26.423 3.25162 26.4113 3.24912 26.4013C3.12829 25.9022 2.92579 25.5563 2.29495 25.6647C1.99412 25.7163 1.41995 25.0238 1.40912 24.693C1.39912 24.4122 1.40162 24.1305 1.40745 23.8497C1.41829 23.3863 2.00912 22.7838 2.46995 22.8188C2.86079 22.848 3.09912 22.7513 3.14495 22.338C3.14579 22.328 3.15079 22.318 3.15662 22.3088C3.44495 21.868 3.50662 21.4905 3.00995 21.1088C2.73745 20.8997 2.84079 20.0363 3.08995 19.7747C3.18329 19.6763 3.30079 19.5955 3.37329 19.4855C3.71245 18.9722 4.21662 18.9463 4.75329 18.9913C5.01495 19.013 5.14662 19.2113 5.30079 19.373C5.44662 19.5255 5.55829 19.5897 5.76995 19.4597C5.99745 19.3213 6.25995 19.233 6.51662 19.1522C6.66329 19.1063 6.72579 19.0438 6.70829 18.8938C6.62162 18.1622 7.03162 17.7622 7.64579 17.5055C7.72329 17.473 7.72995 17.428 7.72995 17.3655C7.72995 15.9747 7.72995 14.583 7.72995 13.1255L7.72912 13.1288Z" fill="#0C2C22"/>
<path d="M19.5484 23.8255H16.32C16.1642 23.8255 16.0075 23.828 15.8517 23.8255C15.4017 23.8172 14.94 23.9572 14.6675 23.3555C14.4742 22.928 14.0309 22.7114 13.5125 22.813C13.3617 22.8422 13.2975 22.7705 13.2492 22.628C13.1559 22.3539 13.0534 22.0789 12.9192 21.8239C12.835 21.6639 12.8442 21.5747 12.9767 21.4572C13.2175 21.2439 13.3934 21.0197 13.4342 20.6514C13.5267 19.823 12.9234 19.4705 12.4292 19.0589C12.1592 18.8339 11.3417 18.9897 11.11 19.273C10.8859 19.5464 10.6742 19.6164 10.3917 19.3855C10.3684 19.3664 10.3359 19.3572 10.305 19.3505C9.79419 19.238 9.52086 19.0147 9.54669 18.3964C9.56419 17.9897 9.12836 17.6997 8.74253 17.5355C8.58669 17.4697 8.57086 17.4097 8.57086 17.2797C8.57253 15.7805 8.57503 14.2814 8.56836 12.7814C8.56836 12.6155 8.62086 12.5222 8.75836 12.4297C11.82 10.3697 14.8784 8.30554 17.9334 6.23637C18.095 6.1272 18.2017 6.12137 18.3675 6.23304C21.4225 8.30304 24.4817 10.3672 27.5425 12.4272C27.6784 12.5189 27.7359 12.6114 27.7359 12.778C27.7309 16.3805 27.7309 19.983 27.7359 23.5855C27.7359 23.7772 27.685 23.8322 27.4925 23.8314C26.2742 23.823 25.0567 23.8222 23.8384 23.8322C23.6525 23.8339 23.59 23.7555 23.53 23.6039C23.2334 22.8514 22.9217 22.1039 22.6242 21.3514C22.4325 20.8664 22.125 20.488 21.6517 20.2639C21.5317 20.2072 21.4834 20.1205 21.4409 20.0139C20.985 18.8889 20.5325 17.7622 20.0709 16.6397C19.9992 16.4655 20.0117 16.3972 20.2142 16.3489C20.9525 16.173 21.6609 16.3014 22.3609 16.5297C22.855 16.6905 23.3275 16.9055 23.7834 17.1564C23.9942 17.2722 24.1975 17.3155 24.38 17.123C24.5592 16.9339 24.5209 16.738 24.3892 16.528C23.4025 14.9547 22.1317 13.728 20.29 13.2255C19.0134 12.8772 17.7775 13.0522 16.5875 13.6105C16.4084 13.6947 16.3309 13.8322 16.2767 14.0097C16.0875 14.6297 15.6792 14.7997 15.105 14.488C14.9234 14.3897 14.76 14.3697 14.5734 14.4497C14.2492 14.5872 13.9192 14.713 13.595 14.8522C13.0625 15.0814 12.8425 15.5922 13.0525 16.1364C13.2842 16.7364 13.5225 17.3347 13.7725 17.9272C13.9884 18.4389 14.5092 18.6522 15.0384 18.4605C15.2625 18.3789 15.4784 18.273 15.7042 18.198C16.0742 18.0755 16.3559 17.9064 16.4675 17.4755C16.5642 17.1055 16.9334 16.9672 17.3009 17.0705C17.4334 17.108 17.5342 17.1697 17.5925 17.318C18.0792 18.5422 18.5759 19.763 19.0725 20.983C19.1142 21.0855 19.1225 21.1689 19.0792 21.2772C18.88 21.7764 18.9184 22.2722 19.1242 22.763C19.2642 23.0972 19.3934 23.4355 19.5484 23.8264V23.8255Z" fill="#FED65C"/>
<path d="M29.7439 12.8892C28.6964 12.1825 27.6905 11.505 26.6855 10.8267C23.9805 9.00166 21.2755 7.17666 18.5705 5.35083C18.198 5.09916 18.1064 5.09833 17.733 5.34999C14.0805 7.81499 10.4289 10.28 6.77638 12.7442C6.71888 12.7825 6.66055 12.82 6.56055 12.885C6.56055 12.1575 6.56138 11.4758 6.56055 10.7933C6.56055 10.63 6.70388 10.6008 6.79971 10.5358C9.35971 8.81249 11.923 7.09249 14.4847 5.37166C15.6322 4.60083 16.7814 3.83333 17.9247 3.05666C18.0789 2.95166 18.1847 2.92333 18.358 3.03999C22.0897 5.55499 25.8256 8.06249 29.563 10.5683C29.6847 10.65 29.7505 10.7308 29.748 10.89C29.7381 11.535 29.7439 12.1808 29.7439 12.8875V12.8892Z" fill="#FED65C"/>
<path d="M13.929 24.2632C13.929 24.6699 13.8723 24.7199 13.4581 24.7274C12.7323 24.7399 12.5623 24.5616 12.3456 25.5307C12.2573 25.9266 12.0648 26.2882 11.8406 26.6291C11.6665 26.8932 11.6898 27.1357 11.9173 27.3582C12.0665 27.5041 12.214 27.6499 12.359 27.7999C12.4898 27.9349 12.4848 28.0757 12.359 28.2116C12.2806 28.2949 12.1981 28.3741 12.1173 28.4549C11.9731 28.5991 11.8306 28.5991 11.6865 28.4532C11.5331 28.2974 11.3781 28.1432 11.2223 27.9899C11.0256 27.7974 10.8081 27.7649 10.5731 27.9174C10.0981 28.2266 9.58148 28.4357 9.02898 28.5574C8.75898 28.6174 8.62398 28.7916 8.62481 29.0699C8.62565 29.2882 8.62565 29.5074 8.62481 29.7257C8.62315 29.9149 8.51898 30.0099 8.33731 30.0207C8.22315 30.0274 8.10815 30.0241 7.99398 30.0216C7.79398 30.0182 7.68565 29.9232 7.68731 29.7157C7.68898 29.5074 7.68981 29.2991 7.68731 29.0916C7.68398 28.8074 7.55648 28.6182 7.26815 28.5549C6.72565 28.4366 6.21731 28.2333 5.75148 27.9283C5.49065 27.7574 5.26315 27.8016 5.05315 28.0166C4.91481 28.1582 4.77148 28.2941 4.63398 28.4366C4.48315 28.5932 4.33398 28.6041 4.17898 28.4441C4.11398 28.3766 4.04731 28.3108 3.97981 28.2458C3.81481 28.0857 3.81065 27.9249 3.97481 27.7624C4.12231 27.6157 4.27148 27.4699 4.41648 27.3216C4.60981 27.1241 4.63398 26.9016 4.48565 26.6699C4.18481 26.2024 3.97148 25.6999 3.85731 25.1549C3.79481 24.8566 3.60481 24.7157 3.29898 24.7249C3.11148 24.7308 2.92398 24.7232 2.73731 24.7266C2.49315 24.7316 2.38148 24.6216 2.37815 24.3707C2.37065 23.8066 2.38148 23.7891 2.94065 23.7882C3.07565 23.7882 3.21148 23.7924 3.34648 23.7849C3.61815 23.7699 3.79565 23.6341 3.85315 23.3624C3.97065 22.8074 4.18648 22.2957 4.49398 21.8191C4.63481 21.6007 4.60815 21.3824 4.42731 21.1924C4.27648 21.0341 4.11648 20.8857 3.96398 20.7291C3.81481 20.5757 3.81565 20.4199 3.96731 20.2674C4.04065 20.1941 4.11481 20.1207 4.18898 20.0482C4.33648 19.9032 4.47898 19.9124 4.62148 20.0582C4.76731 20.2074 4.91481 20.3532 5.06315 20.4999C5.26565 20.6999 5.48731 20.7474 5.73731 20.5832C6.20231 20.2774 6.70981 20.0707 7.25231 19.9524C7.55731 19.8857 7.68648 19.6941 7.68731 19.3957C7.68731 19.1982 7.68981 18.9999 7.68731 18.8024C7.68315 18.5807 7.79231 18.4791 8.00981 18.4824C8.11398 18.4841 8.21815 18.4807 8.32231 18.4824C8.52231 18.4866 8.62731 18.5866 8.62648 18.7916C8.62565 19.0099 8.62648 19.2291 8.62648 19.4474C8.62815 19.7116 8.75731 19.8807 9.01398 19.9399C9.57565 20.0691 10.1031 20.2757 10.5865 20.5941C10.8073 20.7391 11.0223 20.7066 11.2106 20.5257C11.369 20.3749 11.5231 20.2199 11.6748 20.0632C11.829 19.9049 11.9773 19.9041 12.1298 20.0632C12.2015 20.1391 12.2773 20.2099 12.3498 20.2849C12.4906 20.4299 12.4898 20.5757 12.3481 20.7191C12.2023 20.8674 12.0548 21.0149 11.9065 21.1607C11.6873 21.3766 11.6723 21.6124 11.8356 21.8641C12.1323 22.3224 12.3365 22.8174 12.4481 23.3524C12.5073 23.6374 12.694 23.7757 12.979 23.7857C13.1348 23.7907 13.2915 23.7874 13.4473 23.7874C13.8981 23.7874 13.9315 23.8208 13.9315 24.2616L13.929 24.2632Z" fill="#FED65C"/>
<path d="M19.8047 21.9617C19.8047 21.4359 20.1172 21.055 20.6055 20.9475C21.1089 20.8367 21.578 21.06 21.7822 21.5425C22.1055 22.3067 22.4089 23.0792 22.7197 23.8484C23.2839 25.2425 23.8522 26.635 24.4097 28.0317C24.7289 28.8325 24.1455 29.6059 23.3097 29.4975C22.838 29.4367 22.6039 29.1017 22.4405 28.6975C21.8147 27.1492 21.1889 25.6017 20.5639 24.0534C20.3505 23.5242 20.1405 22.9942 19.9247 22.4659C19.853 22.2909 19.798 22.1142 19.8055 21.9625L19.8047 21.9617Z" fill="#FED65C"/>
<path d="M22.6279 15.6956C22.2612 15.6164 21.922 15.5239 21.5779 15.4714C20.8345 15.3589 20.107 15.4139 19.4154 15.7414C19.0029 15.9364 18.9429 16.0797 19.112 16.4997C19.5529 17.5964 19.992 18.6939 20.442 19.7864C20.5245 19.9864 20.5845 20.1347 20.2804 20.1514C20.212 20.1556 20.1354 20.1872 20.0795 20.2297C19.8137 20.4297 19.7129 20.3372 19.602 20.0456C19.222 19.0481 18.7345 18.0856 18.4279 17.0672C18.1729 16.2214 16.9204 15.9939 16.3504 16.3772C16.1212 16.5306 15.8954 16.6981 15.7937 16.9506C15.6679 17.2614 15.4437 17.4006 15.1487 17.5089C14.597 17.7106 14.602 17.7239 14.3804 17.1739C14.2104 16.7506 14.047 16.3247 13.8662 15.9056C13.7954 15.7414 13.8245 15.6589 13.9912 15.6006C14.187 15.5322 14.3795 15.4547 14.567 15.3664C14.7087 15.3006 14.8287 15.3047 14.9795 15.3606C15.8645 15.6864 16.6254 15.3589 16.9995 14.4997C17.0579 14.3647 17.1337 14.2931 17.272 14.2372C19.242 13.4406 21.1804 14.1072 22.5987 15.5864C22.6112 15.5989 22.6095 15.6247 22.6279 15.6956Z" fill="#FED65C"/>
<path d="M11.3725 6.44545C11.3725 4.94129 11.375 3.49462 11.3691 2.04795C11.3691 1.89462 11.415 1.85379 11.5633 1.85712C11.9483 1.86712 12.3333 1.86462 12.7191 1.85795C12.8633 1.85545 12.9208 1.89712 12.92 2.05129C12.915 3.11295 12.9158 4.17545 12.92 5.23712C12.92 5.35295 12.8891 5.43379 12.7908 5.49795C12.3333 5.80045 11.8783 6.10629 11.3725 6.44462V6.44545Z" fill="#FED65C"/>
<path d="M18.1583 7.73279C19.1608 7.73779 19.9567 8.53946 19.955 9.54196C19.9533 10.5411 19.1492 11.3503 18.1542 11.3545C17.155 11.3586 16.32 10.5178 16.3342 9.52196C16.3483 8.52362 17.1608 7.72696 18.1583 7.73196V7.73279Z" fill="#0C2C22"/>
<path d="M4.49219 24.2548C4.49052 22.2282 6.13219 20.5823 8.15552 20.5848C10.1605 20.5873 11.8089 22.2307 11.8147 24.234C11.8205 26.2565 10.1797 27.9132 8.16136 27.9215C6.14636 27.9298 4.49469 26.279 4.49219 24.2548Z" fill="#0C2C22"/>
<path d="M18.1326 8.57145C18.6568 8.56145 19.116 9.01229 19.116 9.53812C19.116 10.0523 18.6801 10.494 18.1643 10.5015C17.6435 10.509 17.201 10.0881 17.186 9.57062C17.1701 9.03979 17.6043 8.58229 18.1318 8.57145H18.1326Z" fill="#FED65C"/>
<path d="M10.8421 24.2456C10.848 25.7256 9.65796 26.9289 8.17796 26.9398C6.68296 26.9506 5.46546 25.7589 5.45129 24.2706C5.43713 22.7898 6.65213 21.5623 8.13713 21.5581C9.63213 21.5539 10.8363 22.7498 10.8421 24.2465V24.2456Z" fill="#FED65C"/>
</svg>
