<svg width="20" height="20" viewBox="0 0 20 20" fill="none" xmlns="http://www.w3.org/2000/svg">
<path d="M16.6666 3.33331H3.33329C2.40829 3.33331 1.67496 4.07498 1.67496 4.99998L1.66663 15C1.66663 15.925 2.40829 16.6666 3.33329 16.6666H16.6666C17.5916 16.6666 18.3333 15.925 18.3333 15V4.99998C18.3333 4.07498 17.5916 3.33331 16.6666 3.33331ZM15.8333 15H4.16663C3.70829 15 3.33329 14.625 3.33329 14.1666V9.99998H16.6666V14.1666C16.6666 14.625 16.2916 15 15.8333 15ZM16.6666 6.66665H3.33329V5.83331C3.33329 5.37498 3.70829 4.99998 4.16663 4.99998H15.8333C16.2916 4.99998 16.6666 5.37498 16.6666 5.83331V6.66665Z" fill="#10382C"/>
</svg>
