<svg width="20" height="20" viewBox="0 0 20 20" fill="none" xmlns="http://www.w3.org/2000/svg">
<path d="M10.7334 4.2083C13.3834 4.54163 15.4584 6.61663 15.7917 9.26663C15.8417 9.69163 16.2 9.99997 16.6167 9.99997C16.65 9.99997 16.6834 9.99997 16.7167 9.99163C17.175 9.9333 17.5 9.51663 17.4417 9.0583C17.0167 5.64997 14.3417 2.97497 10.9334 2.54997C10.475 2.49997 10.0584 2.82497 10.0084 3.2833C9.95003 3.74163 10.275 4.1583 10.7334 4.2083ZM11.05 5.96663C10.6084 5.84997 10.15 6.11663 10.0334 6.56663C9.9167 7.01663 10.1834 7.46663 10.6334 7.5833C11.5084 7.8083 12.1917 8.49163 12.425 9.37497C12.525 9.74997 12.8584 9.99997 13.2334 9.99997C13.3 9.99997 13.375 9.99163 13.4417 9.97497C13.8834 9.8583 14.15 9.39997 14.0417 8.9583C13.65 7.4833 12.5084 6.34163 11.05 5.96663ZM16.025 12.7166L13.9084 12.475C13.4 12.4166 12.9 12.5916 12.5417 12.95L11.0084 14.4833C8.65003 13.2833 6.7167 11.3583 5.5167 8.99163L7.05837 7.44997C7.4167 7.09163 7.5917 6.59163 7.53337 6.0833L7.2917 3.9833C7.1917 3.14163 6.48337 2.5083 5.63337 2.5083H4.1917C3.25003 2.5083 2.4667 3.29163 2.52503 4.2333C2.9667 11.35 8.65837 17.0333 15.7667 17.475C16.7084 17.5333 17.4917 16.75 17.4917 15.8083V14.3666C17.5 13.525 16.8667 12.8166 16.025 12.7166Z" fill="white"/>
</svg>
