<svg width="64" height="64" viewBox="0 0 64 64" fill="none" xmlns="http://www.w3.org/2000/svg">
<g clip-path="url(#clip0_1_3104)">
<g clip-path="url(#clip1_1_3104)">
<path fill-rule="evenodd" clip-rule="evenodd" d="M31.486 11.1678C31.54 11.2658 31.637 11.3218 31.748 11.3218C31.861 11.3218 31.959 11.2658 32.014 11.1678C36.301 3.6208 42.863 -2.2102 51.841 0.814798C58.75 3.1408 63.75 9.9608 63.75 18.0098C63.75 25.9538 58.092 32.8578 52.103 38.8038C51.925 38.9808 51.67 39.0278 51.44 38.9268C51.21 38.8258 51.072 38.6068 51.081 38.3558C51.108 37.6278 51.053 36.8968 50.918 36.1388L50.048 31.2508C49.654 29.0408 48.176 27.2578 46.074 26.4678L45.729 26.3378C45.572 26.2788 45.459 26.1718 45.391 26.0188C45.324 25.8658 45.321 25.7098 45.382 25.5548C45.807 24.4858 46.032 23.3358 46.032 22.2438C46.032 18.7128 43.169 15.8508 39.638 15.8508C36.107 15.8508 33.245 18.7128 33.245 22.2438C33.245 23.0558 33.369 23.8988 33.607 24.7178C33.659 24.8948 33.632 25.0678 33.528 25.2208C33.425 25.3738 33.274 25.4638 33.091 25.4818C32.211 25.5698 31.328 25.6738 30.447 25.7758C30.239 25.7998 30.048 25.7228 29.914 25.5608C29.781 25.3978 29.743 25.1948 29.808 24.9948C30.101 24.0908 30.255 23.1478 30.255 22.2438C30.255 18.7128 27.393 15.8508 23.862 15.8508C20.331 15.8508 17.469 18.7128 17.469 22.2438C17.469 23.6068 17.819 25.0578 18.47 26.3328C18.559 26.5078 18.56 26.6968 18.473 26.8728C18.385 27.0488 18.234 27.1618 18.04 27.1958C16.253 27.5108 14.83 28.2288 14.191 30.2628C13.93 31.0908 13.914 31.9168 14.093 32.6788C13.411 33.2708 12.949 34.0778 12.786 34.9928L12.582 36.1388C12.447 36.8968 12.392 37.6278 12.419 38.3548C12.428 38.6058 12.29 38.8258 12.06 38.9268C11.83 39.0278 11.575 38.9808 11.396 38.8028C5.407 32.8578 -0.25 25.9538 -0.25 18.0098C-0.25 9.7458 5.021 2.7768 12.218 0.637798C20.991 -1.9732 27.34 3.8718 31.486 11.1678ZM23.862 19.5978C25.737 19.5978 27.255 21.1158 27.255 22.9908C27.255 24.8658 26.05 27.7688 23.862 27.7688C21.674 27.7688 20.469 24.8668 20.469 22.9908C20.469 21.1158 21.987 19.5978 23.862 19.5978ZM32.189 40.0178C32.152 40.2108 32.107 40.4058 32.055 40.6048L30.336 46.9668C30.135 47.7028 29.51 48.1948 28.751 48.1948H28.55L27.746 62.4368C27.702 63.3078 26.987 63.9998 26.117 63.9998H21.607C20.737 63.9998 20.022 63.3078 19.977 62.4368L19.174 48.1948H18.973C18.214 48.1948 17.589 47.7028 17.388 46.9668L15.669 40.6048C15.379 39.5108 15.334 38.5288 15.535 37.4118L15.739 36.2668C15.795 35.9528 15.974 35.7068 16.256 35.5578C16.537 35.4088 16.842 35.3988 17.133 35.5298C17.585 35.7328 18.114 35.8448 18.716 35.8338L30.875 36.1038C31.379 36.1148 31.79 36.4908 31.847 36.9908L32.189 40.0178ZM39.638 19.5978C41.514 19.5978 43.032 21.1158 43.032 22.9908C43.032 24.8658 41.826 27.7688 39.638 27.7688C37.451 27.7688 36.245 24.8658 36.245 22.9908C36.245 21.1158 37.763 19.5978 39.638 19.5978ZM42.049 28.9068L45.018 30.0228C46.134 30.4468 46.893 31.3628 47.094 32.5238L47.965 37.4118C48.166 38.5288 48.121 39.5108 47.831 40.6048L46.112 46.9668C45.911 47.7028 45.286 48.1948 44.527 48.1948H44.326L43.523 62.4368C43.477 63.3078 42.763 63.9998 41.893 63.9998H37.383C36.513 63.9998 35.798 63.3078 35.754 62.4368L34.95 48.1948L33.452 34.9348C33.413 34.5878 33.127 34.3268 32.778 34.3188L18.715 34.0068C16.601 34.0718 16.292 31.0148 18.503 30.8848L33.702 29.1788C34.305 29.1358 36.452 28.8678 37.471 28.8228C37.788 28.8098 38.044 28.8118 38.186 28.8398L39.258 29.0848C39.526 29.1528 39.749 29.1528 40.017 29.0848L41.088 28.8398C41.423 28.7728 41.713 28.7728 42.048 28.9068H42.049Z" fill="white"/>
</g>
</g>
<defs>
<clipPath id="clip0_1_3104">
<rect width="64" height="64" fill="white"/>
</clipPath>
<clipPath id="clip1_1_3104">
<rect width="64" height="64" fill="white" transform="translate(-0.25)"/>
</clipPath>
</defs>
</svg>
