<svg width="32" height="32" viewBox="0 0 32 32" fill="none" xmlns="http://www.w3.org/2000/svg">
<g clip-path="url(#clip0_1_3297)">
<path d="M9.87809 20.2982C9.24809 20.2982 8.61726 20.2999 7.98726 20.2982C7.44643 20.2965 7.29809 20.1499 7.29726 19.6207C7.29726 19.1224 7.29393 18.6232 7.29809 18.1249C7.30143 17.7507 7.47226 17.5674 7.84393 17.5524C8.14476 17.5399 8.44643 17.5407 8.74726 17.5524C8.91476 17.559 8.96559 17.4982 8.95559 17.3382C8.94393 17.1624 8.95309 16.9849 8.95309 16.8082C8.95309 16.6149 8.97893 16.4357 8.74643 16.309C8.55559 16.2049 8.53726 15.9607 8.62059 15.774C9.03393 14.8465 8.95226 13.8665 8.95309 12.894C8.95393 11.0032 8.94726 9.11236 8.95976 7.22153C8.96143 6.95819 8.88976 6.87903 8.63309 6.90153C8.37559 6.92486 8.11393 6.91569 7.85476 6.90319C7.42643 6.88236 7.12559 6.62736 7.05893 6.24653C6.99476 5.87903 7.17643 5.54653 7.55726 5.37236C8.51809 4.93319 9.47893 4.49486 10.4464 4.07153C10.6281 3.99236 10.6873 3.89903 10.6823 3.70486C10.6689 3.11319 10.6739 2.52069 10.6781 1.92819C10.6814 1.50236 10.8623 1.31986 11.2864 1.31819C12.0973 1.31486 12.9073 1.31653 13.7181 1.31819C14.2106 1.31819 14.3831 1.47819 14.3748 1.96736C14.3706 2.22736 14.4089 2.29153 14.6731 2.16819C15.7714 1.65736 16.8814 1.17069 17.9814 0.664026C18.2089 0.559026 18.4064 0.559026 18.6323 0.661526C22.0839 2.22403 25.5389 3.78153 28.9914 5.34153C29.4364 5.54236 29.6323 5.87653 29.5506 6.26736C29.4656 6.67569 29.1481 6.89986 28.6439 6.90569C28.4156 6.90819 28.1848 6.92403 27.9589 6.90153C27.7056 6.87569 27.6548 6.97319 27.6556 7.21153C27.6639 9.66319 27.6606 12.1157 27.6606 14.5674C27.6606 15.4715 27.6681 16.3749 27.6556 17.279C27.6523 17.5007 27.7173 17.5665 27.9339 17.5524C28.2031 17.534 28.4739 17.5407 28.7439 17.5499C29.1373 17.5624 29.3131 17.7415 29.3164 18.1299C29.3206 18.6599 29.3206 19.1899 29.3164 19.719C29.3131 20.1099 29.1414 20.2815 28.7456 20.2965C28.6214 20.3015 28.4964 20.2974 28.3714 20.2974C28.2489 20.2974 28.1273 20.2974 28.0139 20.2974C27.9756 20.3707 28.0256 20.3815 28.0564 20.4032C29.2906 21.2507 29.2523 22.9974 27.9789 23.7832C25.1648 25.5199 22.3464 27.2507 19.5339 28.9915C18.5139 29.6232 17.4456 29.7782 16.2848 29.4582C14.3673 28.929 12.4423 28.4274 10.5206 27.9149C10.3373 27.8657 9.68476 28.114 9.60726 28.2599C9.56976 28.3315 9.62559 28.374 9.65309 28.424C9.74726 28.5974 9.84893 28.7657 9.93893 28.9407C10.2523 29.5499 10.0781 30.2057 9.49143 30.5624C9.06643 30.8207 8.63143 31.0615 8.19559 31.3015C7.50643 31.6799 6.83476 31.4907 6.44476 30.804C5.33476 28.8482 4.22976 26.8899 3.12226 24.9324C2.92809 24.5899 2.72976 24.2499 2.54226 23.9032C2.19393 23.259 2.38143 22.5865 3.01309 22.2165C3.43309 21.9707 3.85893 21.7332 4.28559 21.499C4.94476 21.1374 5.60893 21.3232 5.99559 21.9707C6.18726 22.2918 6.44809 22.3571 6.77809 22.1665C7.81726 21.5657 8.85643 20.964 9.89559 20.3632L9.87643 20.2982H9.87809Z" fill="#0C2C22"/>
<path d="M21.8525 17.5484C22.0758 17.3151 22.13 17.0784 22.1275 16.8017C22.1191 15.7834 22.1275 14.7651 22.1208 13.7476C22.12 13.5759 22.1716 13.4684 22.3091 13.3609C23.6983 12.2792 24.0116 10.3834 23.0425 8.90591C22.9416 8.75175 22.945 8.65425 23.0291 8.49675C23.7566 7.13341 23.7041 5.78841 22.7883 4.54591C21.8716 3.30175 20.5858 2.81841 19.0825 3.15008C17.5941 3.47841 16.6666 4.45758 16.3016 5.94008C16.1525 6.54508 16.1891 7.15758 16.3833 7.75258C16.4333 7.90675 16.4183 8.01008 16.2975 8.13508C15.7983 8.65091 15.5175 9.27758 15.4225 9.98591C15.405 10.1167 15.3791 10.2117 15.2508 10.2851C13.5241 11.2742 11.8016 12.2701 10.0775 13.2634C10.0525 13.2776 10.0208 13.2809 9.98831 13.2901C9.91414 13.1826 9.95247 13.0659 9.95247 12.9576C9.94997 10.8901 9.95081 8.82258 9.95081 6.75508C9.95081 5.99758 9.86747 5.91341 9.11581 5.90925C9.05831 5.90925 9.00081 5.90925 8.93164 5.90925C8.97497 5.78008 9.08247 5.77925 9.15997 5.74425C12.1308 4.39925 15.1033 3.05758 18.0758 1.71508C18.2091 1.65508 18.3233 1.61341 18.4825 1.68591C21.5083 3.06091 24.5375 4.42675 27.5666 5.79508C27.6108 5.81508 27.6733 5.81091 27.6775 5.91175C27.5075 5.91175 27.3366 5.90341 27.1666 5.91341C26.8591 5.93175 26.6958 6.09341 26.6675 6.40008C26.6583 6.50341 26.6625 6.60758 26.6625 6.71175C26.6625 10.2126 26.6591 13.7142 26.6691 17.2151C26.6691 17.4901 26.6033 17.5576 26.3291 17.5551C24.9366 17.5401 23.545 17.5484 22.1525 17.5484C22.0525 17.5484 21.9525 17.5484 21.8525 17.5484Z" fill="#FED65C"/>
<path d="M17.4327 28.6341C16.7177 28.6141 16.0536 28.3566 15.3736 28.1799C13.7894 27.7682 12.2086 27.3432 10.6319 26.9032C10.2944 26.8091 10.0144 26.8257 9.72274 27.0224C9.52107 27.1591 9.28524 27.4057 9.08524 27.3416C8.91607 27.2874 8.82857 26.9657 8.71107 26.7599C8.11274 25.7057 7.52107 24.6466 6.91441 23.5974C6.80024 23.3999 6.78607 23.3066 7.01524 23.1782C8.10024 22.5699 9.17274 21.9391 10.2486 21.3166C10.5894 21.1191 10.9377 20.9416 11.3102 20.8057C11.8811 20.5974 12.4377 20.6032 13.0119 20.8074C14.4261 21.3099 15.8286 21.8541 17.3027 22.1707C17.4344 22.1991 17.5669 22.2241 17.6977 22.2574C18.1894 22.3841 18.4852 22.8232 18.3886 23.2807C18.2894 23.7524 17.8636 24.0199 17.3411 23.9182C16.4552 23.7449 15.5952 23.4716 14.7252 23.2341C14.5552 23.1874 14.3877 23.1299 14.2161 23.0924C13.9377 23.0324 13.6761 23.1916 13.6094 23.4491C13.5444 23.6999 13.6669 23.9674 13.9369 24.0416C15.3552 24.4282 16.7527 24.9132 18.2277 25.0524C19.0294 25.1282 19.7569 24.8757 20.4452 24.4682C21.9986 23.5507 23.5594 22.6482 25.1211 21.7457C25.6711 21.4274 26.2419 21.1532 26.8936 21.1224C27.7027 21.0832 28.1736 21.7432 27.8752 22.4907C27.8036 22.6716 27.6819 22.8032 27.5161 22.9049C24.6452 24.6699 21.7761 26.4366 18.9061 28.2032C18.4552 28.4807 17.9702 28.6432 17.4336 28.6349L17.4327 28.6341Z" fill="#FED65C"/>
<path d="M21.4859 8.76436C21.3142 8.96603 21.1551 9.0252 20.8826 8.87186C20.2059 8.49186 19.3367 8.83103 19.0434 9.54853C18.7501 10.2669 19.1409 11.096 19.8817 11.3302C20.6084 11.5594 21.4601 11.1194 21.5592 10.376C21.6226 9.9002 21.8851 9.69103 22.2392 9.49853C22.9301 10.6185 22.6184 12.0085 21.5017 12.7069C21.2309 12.876 21.1176 13.0744 21.1217 13.3902C21.1342 14.4285 21.1217 15.4677 21.1309 16.506C21.1326 16.6994 21.0909 16.8427 20.9342 16.9619C20.7942 17.0685 20.6676 17.1935 20.5392 17.3144C20.2359 17.5985 20.2384 17.8752 20.5451 18.166C20.5901 18.2085 20.6326 18.2569 20.6842 18.2902C20.8859 18.421 20.8467 18.5377 20.6726 18.6569C20.6134 18.6977 20.5626 18.7519 20.5117 18.8035C20.2442 19.0719 20.2492 19.3444 20.5267 19.6119C20.6017 19.6844 20.6792 19.7527 20.7567 19.8219C21.1651 20.1885 21.1692 20.1919 20.7784 20.5969C20.6159 20.7652 20.4717 21.0785 20.2809 21.0594C20.0984 21.041 19.9559 20.7402 19.7734 20.5894C19.4992 20.3635 19.4409 20.0869 19.4434 19.7427C19.4584 17.6444 19.4451 15.5469 19.4559 13.4485C19.4576 13.0977 19.3367 12.8777 19.0376 12.6885C17.9409 11.9952 17.6351 10.5802 18.3234 9.49686C19.0084 8.41853 20.4209 8.09186 21.4859 8.7652V8.76436Z" fill="#FED65C"/>
<path d="M14.1847 17.5471C12.8764 17.5471 11.568 17.5421 10.2597 17.5521C10.0264 17.5537 9.93555 17.5087 9.94388 17.2504C9.96221 16.6587 9.95805 16.6246 10.5322 16.8121C11.0039 16.9662 11.3547 16.8012 11.713 16.5512C11.9064 16.4162 11.9414 16.2012 11.9614 16.0021C11.988 15.7371 12.1014 15.7212 12.3014 15.8196C12.3289 15.8329 12.3614 15.8354 12.3914 15.8446C12.873 15.9937 13.0997 15.8671 13.2105 15.3862C13.2989 15.0004 13.3022 14.9912 13.6639 15.1187C13.9097 15.2046 14.1214 15.1746 14.3439 15.0429C15.228 14.5229 16.1205 14.0187 17.0039 13.4979C17.173 13.3979 17.3097 13.3887 17.4897 13.4687C17.6864 13.5562 17.9022 13.6404 18.1122 13.6471C18.4305 13.6579 18.4647 13.8071 18.4605 14.0771C18.4455 15.1254 18.4455 16.1746 18.4605 17.2229C18.4639 17.4762 18.408 17.5554 18.1422 17.5529C16.8239 17.5387 15.5047 17.5462 14.1855 17.5462L14.1847 17.5471Z" fill="#FED65C"/>
<path d="M7.57105 30.4918C7.41772 30.4893 7.36355 30.3993 7.31188 30.3085C6.02105 28.0285 4.73105 25.7477 3.43772 23.4693C3.32272 23.266 3.38105 23.1485 3.57188 23.0443C3.94522 22.8418 4.31772 22.6368 4.67855 22.4143C4.92438 22.2627 5.05605 22.3193 5.19438 22.5652C6.16105 24.291 7.13938 26.0102 8.11438 27.731C8.41022 28.2535 8.69855 28.781 9.00438 29.2977C9.13355 29.516 9.10522 29.651 8.87855 29.7718C8.49522 29.976 8.12105 30.1993 7.74188 30.4127C7.68022 30.4477 7.61188 30.4727 7.57105 30.491V30.4918Z" fill="#FED65C"/>
<path d="M22.1633 7.99593C21.5767 7.6201 20.9675 7.4126 20.2942 7.42344C20.195 7.4251 20.1133 7.38344 20.0283 7.3476C19.2075 7.0026 18.3775 6.97593 17.5467 7.29677C17.3567 7.3701 17.2967 7.36177 17.255 7.13844C16.9967 5.74427 17.9533 4.37927 19.4058 4.0951C20.7808 3.82593 22.1867 4.77344 22.4575 6.1526C22.5917 6.83344 22.5017 7.40843 22.1633 7.99593Z" fill="#FED65C"/>
<path d="M17.3294 12.2892C17.1077 12.275 16.9344 12.3917 16.756 12.4942C15.8852 12.9967 15.0119 13.495 14.146 14.0067C13.971 14.11 13.8202 14.1467 13.6277 14.0633C13.4577 13.9892 13.2744 13.9442 13.0952 13.895C12.7669 13.8042 12.5169 13.9433 12.4252 14.265C12.4135 14.305 12.4135 14.3475 12.4044 14.3875C12.3466 14.6447 12.1941 14.735 11.9469 14.6583C11.4644 14.5083 11.2569 14.63 11.1327 15.1217C11.0727 15.36 11.1219 15.695 10.9344 15.8142C10.7302 15.9442 10.4452 15.7342 10.1902 15.7067C10.0035 15.6867 9.92103 15.5925 9.94853 15.3975C9.96436 15.285 9.95353 15.1692 9.95103 15.055C9.94186 14.6775 10.0602 14.4125 10.4269 14.2058C12.2694 13.1692 14.091 12.0942 15.9277 11.0467C16.2502 10.8625 16.4044 10.6433 16.4094 10.2583C16.4227 9.28833 17.1994 8.3525 18.121 8.1875C16.9202 9.38667 16.6469 10.7392 17.3285 12.2883L17.3294 12.2892Z" fill="#FED65C"/>
<path d="M25.763 20.2969C23.6388 21.3577 21.6888 22.6327 19.6547 23.7594C19.5313 23.8277 19.4097 23.9235 19.2338 23.871C19.4872 23.2985 19.4663 22.7327 19.1513 22.1935C18.8413 21.6619 18.373 21.3619 17.7622 21.2435C16.7255 21.0435 15.7238 20.7177 14.7363 20.296C14.8097 20.296 14.8822 20.296 14.9555 20.296C16.0355 20.296 17.1155 20.2985 18.1955 20.2935C18.3597 20.2935 18.4772 20.3019 18.4663 20.5152C18.4597 20.646 18.5613 20.741 18.6455 20.8319C19.048 21.266 19.4497 21.701 19.8563 22.1302C20.1438 22.4327 20.4247 22.4344 20.7088 22.1344C21.123 21.6969 21.5322 21.2552 21.9397 20.8119C22.0013 20.7452 22.0763 20.6594 22.0813 20.5785C22.0988 20.3127 22.2422 20.2877 22.4697 20.2902C23.5497 20.3027 24.6297 20.296 25.7613 20.296L25.763 20.2969Z" fill="#FED65C"/>
<path d="M13.3486 19.2993C11.7695 19.2993 10.1895 19.2927 8.61029 19.306C8.35529 19.3077 8.24613 19.2535 8.29113 18.9885C8.30696 18.8977 8.29863 18.8018 8.29279 18.7085C8.28529 18.591 8.32529 18.5302 8.45113 18.5443C8.49196 18.5485 8.53446 18.5443 8.57613 18.5443C11.7661 18.5443 14.9561 18.5443 18.1461 18.5477C18.247 18.5477 18.4161 18.4777 18.4386 18.6268C18.4703 18.8368 18.4986 19.0635 18.412 19.2668C18.3945 19.3077 18.2403 19.2985 18.1495 19.2993C16.5495 19.301 14.9495 19.3002 13.3486 19.3002V19.2993Z" fill="#FED65C"/>
<path d="M24.9558 19.3022C23.9591 19.3022 22.9616 19.3039 21.965 19.2997C21.8458 19.2997 21.6775 19.3614 21.6208 19.2355C21.5608 19.1014 21.7533 19.0614 21.8166 18.9664C21.8275 18.9497 21.8525 18.9414 21.8616 18.9239C22.0733 18.5122 22.4416 18.5389 22.8291 18.5414C24.5533 18.5539 26.2775 18.553 28.0016 18.5405C28.2591 18.5389 28.3658 18.6005 28.3216 18.8614C28.3116 18.9222 28.3125 18.9872 28.3216 19.048C28.3508 19.2455 28.2816 19.3105 28.0725 19.308C27.0341 19.2964 25.995 19.303 24.9566 19.303L24.9558 19.3022Z" fill="#FED65C"/>
<path d="M11.6749 3.51119C11.6749 3.15202 11.6857 2.84119 11.6707 2.53202C11.6615 2.34619 11.734 2.30952 11.9015 2.31369C12.3149 2.32452 12.729 2.31369 13.1424 2.32035C13.229 2.32202 13.3774 2.25285 13.3774 2.42619C13.3774 2.55785 13.4515 2.71952 13.2615 2.80285C12.744 3.03035 12.2299 3.26285 11.674 3.51119H11.6749Z" fill="#FED65C"/>
<path d="M5.18129 23.6952C5.18296 23.9511 4.96796 24.1752 4.71379 24.1819C4.45713 24.1886 4.23796 23.9777 4.22879 23.7169C4.21963 23.4419 4.43963 23.2111 4.70796 23.2144C4.96213 23.2177 5.17963 23.4386 5.18129 23.6961V23.6952Z" fill="#0C2C22"/>
</g>
<defs>
<clipPath id="clip0_1_3297">
<rect width="32" height="32" fill="white"/>
</clipPath>
</defs>
</svg>
