<svg width="20" height="20" viewBox="0 0 20 20" fill="none" xmlns="http://www.w3.org/2000/svg">
<path d="M12.5 10.0002C14.3417 10.0002 15.8333 8.5085 15.8333 6.66683C15.8333 4.82516 14.3417 3.3335 12.5 3.3335C10.6583 3.3335 9.16667 4.82516 9.16667 6.66683C9.16667 8.5085 10.6583 10.0002 12.5 10.0002ZM5 8.3335V6.66683C5 6.2085 4.625 5.8335 4.16667 5.8335C3.70834 5.8335 3.33334 6.2085 3.33334 6.66683V8.3335H1.66667C1.20834 8.3335 0.833336 8.7085 0.833336 9.16683C0.833336 9.62516 1.20834 10.0002 1.66667 10.0002H3.33334V11.6668C3.33334 12.1252 3.70834 12.5002 4.16667 12.5002C4.625 12.5002 5 12.1252 5 11.6668V10.0002H6.66667C7.125 10.0002 7.5 9.62516 7.5 9.16683C7.5 8.7085 7.125 8.3335 6.66667 8.3335H5ZM12.5 11.6668C10.275 11.6668 5.83334 12.7835 5.83334 15.0002V15.8335C5.83334 16.2918 6.20834 16.6668 6.66667 16.6668H18.3333C18.7917 16.6668 19.1667 16.2918 19.1667 15.8335V15.0002C19.1667 12.7835 14.725 11.6668 12.5 11.6668Z" fill="#10382C"/>
</svg>
