<svg width="56" height="56" viewBox="0 0 56 56" fill="none" xmlns="http://www.w3.org/2000/svg">
<path d="M34.8649 36.2252C36.7581 36.2252 38.2934 34.69 38.2934 32.7968V19.6398C38.2934 17.7466 36.7581 16.2114 34.8649 16.2114H17.1022C15.209 16.2114 13.6738 17.7466 13.6738 19.6398V32.7968C13.6738 34.69 15.209 36.2252 17.1022 36.2252H17.6193V40.7195C17.6193 41.0377 17.8102 41.332 18.1125 41.4513C18.2079 41.4911 18.3113 41.515 18.4147 41.515C18.6216 41.515 18.8284 41.4354 18.9795 41.2843L24.0386 36.2252L34.8649 36.2252ZM19.2185 35.4298C19.2185 34.9923 18.8606 34.6343 18.4231 34.6343H17.1106C16.1004 34.6343 15.2731 33.807 15.2731 32.7968V19.6398C15.2731 18.6296 16.1004 17.8023 17.1106 17.8023H34.8733C35.8835 17.8023 36.7108 18.6296 36.7108 19.6398V32.7968C36.7108 33.807 35.8835 34.6343 34.8733 34.6343H23.7211C23.6177 34.6343 23.5143 34.6582 23.4189 34.6979C23.3234 34.7377 23.2359 34.7934 23.1564 34.8729L19.2268 38.8025V35.4377L19.2185 35.4298Z" fill="white"/>
<path d="M46.0488 26.7433H40.1306C39.6931 26.7433 39.3351 27.1013 39.3351 27.5388C39.3351 27.9763 39.6931 28.3342 40.1306 28.3342H46.0488C47.059 28.3342 47.8863 29.1615 47.8863 30.1717V43.3287C47.8863 44.3389 47.059 45.1662 46.0488 45.1662H44.7363C44.2988 45.1662 43.9408 45.5241 43.9408 45.9616V49.3264L40.0112 45.3969C39.9397 45.3253 39.8522 45.2616 39.7487 45.2219C39.6533 45.1821 39.5499 45.1582 39.4465 45.1582H28.2943C27.2841 45.1582 26.4568 44.3309 26.4568 43.3207V38.0547C26.4568 37.6172 26.0989 37.2592 25.6614 37.2592C25.2239 37.2592 24.8659 37.6172 24.8659 38.0547V43.3207C24.8659 45.2139 26.4011 46.7491 28.2943 46.7491H39.1207L44.1797 51.8082C44.3309 51.9594 44.5377 52.0389 44.7445 52.0389C44.8479 52.0389 44.9513 52.023 45.0468 51.9753C45.3411 51.8559 45.54 51.5616 45.54 51.2434V46.7491H46.057C47.9502 46.7491 49.4854 45.2139 49.4854 43.3207V30.1638C49.4854 28.2706 47.9502 26.7354 46.057 26.7354L46.0488 26.7433Z" fill="white"/>
<path d="M44.7365 39.2397H28.9466C28.5091 39.2397 28.1511 39.5977 28.1511 40.0352C28.1511 40.4727 28.5091 40.8307 28.9466 40.8307H44.7365C45.174 40.8307 45.532 40.4727 45.532 40.0352C45.532 39.5977 45.174 39.2397 44.7365 39.2397Z" fill="white"/>
<path d="M40.1307 37.5377H44.7364C45.1739 37.5377 45.5318 37.1797 45.5318 36.7422C45.5318 36.3047 45.1739 35.9468 44.7364 35.9468H40.1307C39.6932 35.9468 39.3352 36.3047 39.3352 36.7422C39.3352 37.1797 39.6932 37.5377 40.1307 37.5377Z" fill="white"/>
<path d="M40.1307 34.2525H44.7364C45.1739 34.2525 45.5318 33.8946 45.5318 33.4571C45.5318 33.0196 45.1739 32.6616 44.7364 32.6616H40.1307C39.6932 32.6616 39.3352 33.0196 39.3352 33.4571C39.3352 33.8946 39.6932 34.2525 40.1307 34.2525Z" fill="white"/>
<path d="M16.8 14.215C17.2375 14.215 17.5954 13.857 17.5954 13.4195V9.86381C17.5954 9.42631 17.2375 9.06836 16.8 9.06836C16.3625 9.06836 16.0045 9.42631 16.0045 9.86381V13.4195C16.0045 13.857 16.3625 14.215 16.8 14.215Z" fill="#FED65C"/>
<path d="M10.659 12.0774C10.3488 11.7672 9.84766 11.7672 9.53747 12.0774C9.22728 12.3876 9.22724 12.8888 9.53747 13.199L12.0511 15.7126C12.2102 15.8717 12.4091 15.9433 12.6159 15.9433C12.8227 15.9433 13.0216 15.8637 13.1807 15.7126C13.4909 15.4024 13.4909 14.9012 13.1807 14.591L10.667 12.0774H10.659Z" fill="#FED65C"/>
<path d="M10.8739 18.5503H7.31816C6.88066 18.5503 6.52271 18.9082 6.52271 19.3457C6.52271 19.7833 6.88066 20.1412 7.31816 20.1412H10.8739C11.3114 20.1412 11.6693 19.7833 11.6693 19.3457C11.6693 18.9082 11.3114 18.5503 10.8739 18.5503Z" fill="#FED65C"/>
<path d="M22.9808 29.8295L25.4308 32.2795C25.5899 32.4386 25.7887 32.5102 25.9956 32.5102C26.2024 32.5102 26.4012 32.4306 26.5603 32.2795L29.0024 29.8375L31.5001 27.3318L31.5637 27.2681C32.3433 26.4567 32.7728 25.3908 32.7728 24.2693C32.7728 23.1477 32.3194 22.0181 31.5001 21.2068C30.0126 19.7193 27.674 19.5602 25.9877 20.7136C25.2718 20.2204 24.4286 19.9341 23.5377 19.9341C22.3763 19.9341 21.2865 20.3875 20.4752 21.2068C18.8127 22.8614 18.7888 25.5818 20.4115 27.2762L20.4752 27.3398L22.9729 29.8455L22.9808 29.8295ZM21.6046 22.3204C22.6228 21.2943 24.4046 21.2784 25.4387 22.2806C25.4387 22.2806 25.4546 22.2886 25.4626 22.2966L25.558 22.3681C25.5898 22.392 25.6217 22.4159 25.6535 22.4318C25.6614 22.4318 25.6694 22.4397 25.6773 22.4477C25.7012 22.4556 25.733 22.4636 25.7569 22.4716C25.7967 22.4795 25.8285 22.4954 25.8683 22.5034H25.9876H26.0989C26.1387 22.5034 26.1785 22.4875 26.2183 22.4716C26.2421 22.4636 26.2739 22.4636 26.2978 22.4477C26.3058 22.4477 26.3137 22.4397 26.3217 22.4318C26.3535 22.4159 26.3853 22.392 26.4171 22.3761C26.4489 22.3522 26.4887 22.3284 26.5205 22.3045C26.5205 22.3045 26.5364 22.2966 26.5444 22.2886C27.6103 21.2625 29.3365 21.2784 30.3865 22.3284C30.9035 22.8454 31.1898 23.5295 31.1898 24.2693C31.1898 25.009 30.9194 25.6534 30.474 26.1227C30.4581 26.1306 30.3944 26.1943 30.3865 26.2102L25.9956 30.6011L21.5569 26.1624C20.5387 25.0965 20.5546 23.3783 21.6046 22.3284L21.6046 22.3204Z" fill="#FED65C"/>
</svg>
