<svg width="48" height="48" viewBox="0 0 48 48" fill="none" xmlns="http://www.w3.org/2000/svg">
<path d="M42.211 28.0313L33.852 19.6723C33.5861 19.4064 33.1566 19.4064 32.8907 19.6723L29.4475 23.1155C29.1816 23.3814 29.1816 23.811 29.4475 24.0768L30.3612 24.9905L27.7362 27.6155L25.9975 26.5178C25.8884 26.4496 25.7589 26.4087 25.6293 26.4087H20.7408L19.1658 25.8087L17.993 24.6359L18.5589 24.07C18.8249 23.8041 18.8249 23.3745 18.5589 23.1087L15.1158 19.6655C14.8499 19.3996 14.4203 19.3996 14.1544 19.6655L5.79544 28.0245C5.52953 28.2904 5.52953 28.72 5.79544 28.9858L9.23861 32.429C9.37498 32.5654 9.54543 32.6267 9.72271 32.6267C9.9 32.6267 10.0704 32.5585 10.2068 32.429L10.7727 31.8631L12.5455 33.6358V36.1381C12.5455 36.1381 12.5591 36.1926 12.5659 36.2267C12.2864 36.5745 12.1227 36.9972 12.1227 37.4472C12.1227 37.9654 12.3273 38.4563 12.6887 38.8176C13.0296 39.1585 13.4659 39.3358 13.9159 39.3699C13.95 39.8335 14.1409 40.2631 14.4682 40.5972C14.8023 40.9313 15.2318 41.1154 15.6955 41.1494C15.7296 41.5994 15.9068 42.0358 16.2477 42.3767C16.5818 42.7108 17.0114 42.8949 17.475 42.929C17.5091 43.3789 17.6864 43.8153 18.0273 44.1562C18.3955 44.5244 18.8795 44.7222 19.3977 44.7222C19.9159 44.7222 20.4068 44.5176 20.7682 44.1562L21.9136 43.0108L23.0591 44.1562C23.4272 44.5244 23.9113 44.729 24.4295 44.729C24.9477 44.729 25.4318 44.5244 25.8 44.1562C26.134 43.8222 26.3181 43.3926 26.3522 42.929C26.8159 42.8949 27.2522 42.704 27.5795 42.3699C27.9136 42.0358 28.0977 41.6063 28.1386 41.1426C28.6022 41.1085 29.0386 40.9176 29.3658 40.5836C29.7067 40.2426 29.884 39.8063 29.9181 39.3563C30.3817 39.3222 30.8181 39.1313 31.1454 38.7972C31.5135 38.429 31.7181 37.945 31.7181 37.4268C31.7181 37.3995 31.7113 37.3722 31.7113 37.345L37.2339 31.8494L37.7998 32.4153C37.9362 32.5517 38.1066 32.613 38.2839 32.613C38.4612 32.613 38.6316 32.5449 38.768 32.4153L42.2112 28.9721C42.4771 28.7062 42.4771 28.2767 42.2112 28.0108L42.211 28.0313ZM9.71545 30.9904L7.23363 28.5085L14.6313 21.1109L17.1131 23.5927L9.71545 30.9904ZM13.4723 37.4472C13.4723 37.2904 13.5336 37.1472 13.6427 37.0381L14.8155 35.8654C14.9245 35.7563 15.0677 35.695 15.2245 35.695C15.3814 35.695 15.5245 35.7563 15.6336 35.8654C15.7427 35.9745 15.8041 36.1177 15.8041 36.2745C15.8041 36.4313 15.7427 36.5745 15.6336 36.6836L14.4609 37.8563C14.2359 38.0813 13.8677 38.0813 13.6427 37.8563C13.5336 37.7472 13.4723 37.604 13.4723 37.4472ZM15.2518 39.2268C15.2518 39.0699 15.3132 38.9268 15.4223 38.8177L16.595 37.6449C16.7041 37.5359 16.8473 37.4745 17.0041 37.4745C17.1609 37.4745 17.3041 37.5359 17.4132 37.6449C17.5223 37.754 17.5836 37.8972 17.5836 38.054C17.5836 38.2109 17.5223 38.354 17.4132 38.4631L16.2404 39.6359C16.0223 39.854 15.6404 39.854 15.4223 39.6359C15.3132 39.5268 15.2518 39.3836 15.2518 39.2268ZM17.2018 40.5972L18.3746 39.4245C18.5927 39.2063 18.9746 39.2063 19.1927 39.4245C19.3018 39.5336 19.3632 39.6768 19.3632 39.8336C19.3632 39.9904 19.3018 40.1336 19.1927 40.2427L18.02 41.4154C17.8018 41.6336 17.42 41.6336 17.2018 41.4154C16.9768 41.1904 16.9768 40.8222 17.2018 40.5972ZM20.9723 42.029L19.7996 43.2017C19.5814 43.4199 19.1996 43.4199 18.9814 43.2017C18.7564 42.9767 18.7564 42.6085 18.9814 42.3836L20.1541 41.2108C20.3791 40.9858 20.7473 40.9858 20.9723 41.2108C21.1973 41.4358 21.1973 41.804 20.9723 42.029ZM30.1769 37.8563C30.0678 37.9654 29.9315 38.0199 29.7747 38.0267C29.6178 38.0267 29.4747 37.9654 29.3656 37.8563L27.3951 35.8858C27.1292 35.6199 26.6996 35.6199 26.4338 35.8858C26.1679 36.1517 26.1679 36.5813 26.4338 36.8472L28.411 38.8244C28.6428 39.0563 28.6428 39.4108 28.411 39.6426C28.3019 39.7517 28.1656 39.8063 28.0087 39.8131C27.8519 39.8131 27.7087 39.7517 27.5997 39.6426L25.6292 37.6722C25.3633 37.4063 24.9337 37.4063 24.6679 37.6722C24.402 37.9381 24.4019 38.3677 24.6679 38.6335L26.6383 40.604C26.7474 40.7131 26.8088 40.8562 26.8088 41.0131C26.8088 41.1699 26.7474 41.3131 26.6315 41.4222C26.5224 41.5312 26.3724 41.6062 26.2292 41.5926C26.0724 41.5926 25.9292 41.5312 25.8201 41.4222L23.8429 39.4449C23.577 39.179 23.1474 39.179 22.8815 39.4449C22.6156 39.7108 22.6156 40.1404 22.8815 40.4063L24.8588 42.3835C24.9679 42.4926 25.0292 42.6358 25.0292 42.7926C25.0292 42.9494 24.9679 43.0926 24.8588 43.2017C24.6406 43.4199 24.2588 43.4199 24.0406 43.2017L22.5133 41.6812C22.5269 41.163 22.3429 40.6449 21.9474 40.2562C21.6201 39.929 21.1769 39.7517 20.7201 39.7176C20.686 39.2471 20.5019 38.8108 20.161 38.4698C19.8338 38.1426 19.3906 37.9653 18.9338 37.9312C18.8997 37.4608 18.7156 37.0244 18.3747 36.6835C18.0474 36.3562 17.6043 36.1789 17.1474 36.1448C17.1133 35.6744 16.9293 35.238 16.5952 34.8971C15.8793 34.1812 14.6383 34.1675 13.902 34.8562V33.3494C13.902 33.1653 13.827 32.9948 13.7043 32.8653L11.7338 30.8948L17.0317 25.5969L18.3067 26.8719C18.3749 26.9401 18.4567 26.9947 18.5454 27.0288L19.0703 27.2265L17.9522 28.3447C17.093 29.2038 17.093 30.6083 17.9522 31.4674C18.3817 31.8969 18.9476 32.1151 19.5135 32.1151C20.0794 32.1151 20.6453 31.8969 21.0749 31.4674L21.9953 30.5469H23.359C23.3931 30.6083 23.434 30.6764 23.4885 30.7242L29.6046 36.4379L30.191 37.0243C30.3001 37.1334 30.3614 37.2766 30.3614 37.4334C30.3614 37.5902 30.3001 37.7334 30.1842 37.8425L30.1769 37.8563ZM31.1042 36.0358L25.2404 30.5197C25.5199 30.4311 25.7245 30.1856 25.7245 29.8788C25.7245 29.5038 25.4176 29.197 25.0426 29.197H21.7154C21.5313 29.197 21.3608 29.272 21.2313 29.3947L20.1131 30.5129C19.7858 30.8402 19.2472 30.8402 18.9199 30.5129C18.5926 30.1856 18.5926 29.647 18.9199 29.3197L20.4608 27.7788H25.4314L27.4632 29.0674C27.7359 29.2379 28.0837 29.197 28.3086 28.972L31.3223 25.9584L36.2724 30.9085L31.1111 36.0427L31.1042 36.0358ZM38.2837 30.9906L30.886 23.5929L33.3678 21.1111L40.7655 28.5088L38.2837 30.9906Z" fill="white"/>
<path d="M17.3723 16.6502L23.5155 22.7933C23.645 22.9228 23.8155 22.991 23.9996 22.991C24.1837 22.991 24.3541 22.916 24.4837 22.7933L27.5177 19.7524L30.695 16.5751C31.6086 15.6274 32.1064 14.3797 32.1064 13.0637C32.1064 11.7478 31.5814 10.4319 30.62 9.47735C28.8268 7.68416 25.9701 7.52052 23.9925 9.01372C23.1198 8.35917 22.0698 7.99097 20.9585 7.99097C19.6016 7.99097 18.3267 8.51596 17.3721 9.47731C15.4289 11.4137 15.3948 14.5976 17.2971 16.5752L17.3723 16.6502ZM18.3405 10.439C19.036 9.73668 19.9701 9.35487 20.9587 9.35487C21.9473 9.35487 22.8337 9.72305 23.5223 10.3844C23.5223 10.3844 23.536 10.3912 23.5428 10.3981L23.6246 10.4594C23.6519 10.4799 23.6792 10.5003 23.7133 10.514C23.7201 10.514 23.7269 10.5208 23.7337 10.5276C23.7542 10.5344 23.7814 10.5412 23.8019 10.5481C23.836 10.5549 23.8633 10.5685 23.8973 10.5753H23.9996H24.0951C24.1292 10.5753 24.1633 10.5617 24.1974 10.5481C24.2178 10.5412 24.2451 10.5412 24.2655 10.5276C24.2724 10.5276 24.2792 10.5208 24.286 10.514C24.3133 10.5003 24.3405 10.4799 24.3746 10.4594C24.4019 10.439 24.4292 10.4253 24.4564 10.3981C24.4564 10.3981 24.4701 10.3912 24.4769 10.3844C25.9223 8.99351 28.2473 9.02079 29.6657 10.439C30.368 11.1344 30.7498 12.0685 30.7498 13.0571C30.7498 14.0458 30.3884 14.9185 29.7339 15.6072C29.7066 15.6276 29.6862 15.6549 29.6657 15.6754L24.0065 21.3346L18.2862 15.6143C16.8953 14.1688 16.9226 11.8438 18.3408 10.4255L18.3405 10.439Z" fill="#FED65C"/>
</svg>
