<svg width="16" height="16" viewBox="0 0 16 16" fill="none" xmlns="http://www.w3.org/2000/svg">
<path d="M14.9467 7.55998L13.7067 6.14665L13.88 4.27332C13.9133 3.93998 13.6867 3.63332 13.3667 3.55998L11.5267 3.13998L10.5667 1.51998C10.3933 1.23332 10.04 1.11332 9.73334 1.24665L8 1.99998L6.27334 1.25998C5.96667 1.12665 5.60667 1.24665 5.44 1.53332L4.47334 3.14665L2.64 3.55998C2.31334 3.63332 2.08667 3.93332 2.12 4.27332L2.29334 6.13998L1.05334 7.55998C0.833336 7.81332 0.833336 8.18665 1.05334 8.43998L2.29334 9.85332L2.12 11.7333C2.08667 12.0667 2.31334 12.3733 2.63334 12.4467L4.47334 12.8666L5.43334 14.48C5.60667 14.7667 5.96 14.8867 6.27334 14.7533L8 14L9.72667 14.74C10.0333 14.8733 10.3933 14.7533 10.56 14.4667L11.52 12.8467L13.36 12.4267C13.6867 12.3533 13.9067 12.0466 13.8733 11.7133L13.7 9.83998L14.94 8.42665C15.1667 8.18665 15.1667 7.81332 14.9467 7.55998ZM8.66667 11.3333H7.33334V9.99998H8.66667V11.3333ZM8 8.66665C7.63334 8.66665 7.33334 8.36665 7.33334 7.99998V5.33332C7.33334 4.96665 7.63334 4.66665 8 4.66665C8.36667 4.66665 8.66667 4.96665 8.66667 5.33332V7.99998C8.66667 8.36665 8.36667 8.66665 8 8.66665Z" fill="#1C644E"/>
</svg>
