<svg width="32" height="32" viewBox="0 0 32 32" fill="none" xmlns="http://www.w3.org/2000/svg">
<g clip-path="url(#clip0_1_3315)">
<path d="M10.1858 2.65574C11.6517 1.99324 13.0742 1.36658 14.4808 0.705743C14.8825 0.516577 15.2167 0.51491 15.6233 0.69991C19.7117 2.56158 23.8083 4.40491 27.9025 6.25408C27.9683 6.28408 28.035 6.31324 28.1 6.34658C28.4875 6.54574 28.6817 6.91408 28.6008 7.29074C28.5125 7.69991 28.2017 7.96908 27.7558 7.98658C27.34 8.00324 26.9233 7.99074 26.5067 7.99241C26.4058 7.99241 26.3 7.96491 26.3017 8.13658C26.3033 8.30074 26.3983 8.28991 26.5058 8.28908C26.6517 8.28741 26.7975 8.29158 26.9433 8.28824C27.2858 8.27991 27.5625 8.40324 27.805 8.64991C28.5792 9.43658 29.3608 10.2157 30.1458 10.9916C30.39 11.2324 30.5058 11.5066 30.5058 11.8532C30.5017 18.0591 30.5033 24.2649 30.5017 30.4699C30.5017 31.1116 30.1133 31.4924 29.4667 31.4932C24.115 31.4949 18.7633 31.4949 13.4108 31.4932C12.7567 31.4932 12.3767 31.1024 12.3767 30.4366C12.375 28.4582 12.3717 26.4799 12.3817 24.5016C12.3833 24.2557 12.32 24.1932 12.0742 24.1949C8.86749 24.2182 5.66083 24.2307 2.45416 24.2441C1.95999 24.2466 1.80083 24.0874 1.79999 23.5924C1.79749 22.7799 1.79749 21.9682 1.79999 21.1557C1.80166 20.6832 1.96749 20.5199 2.43916 20.5149C2.82416 20.5107 3.20999 20.5016 3.59499 20.5149C3.77749 20.5207 3.81999 20.4557 3.81666 20.2849C3.80666 19.7541 3.81333 19.2232 3.81333 18.6916C3.81333 15.2349 3.80916 11.7782 3.82083 8.32074C3.82166 8.03824 3.74749 7.96824 3.47833 7.98658C3.12583 8.01074 2.77083 7.99824 2.41666 7.99074C1.94666 7.97991 1.60499 7.72074 1.51666 7.31991C1.42249 6.89658 1.62666 6.52241 2.07249 6.31991C3.25333 5.78408 4.43333 5.24491 5.62083 4.72408C5.83416 4.63074 5.91499 4.52741 5.90999 4.29241C5.89416 3.56408 5.90249 2.83491 5.90416 2.10574C5.90583 1.58491 6.05833 1.42574 6.56583 1.42408C7.55499 1.42158 8.54416 1.42158 9.53333 1.42408C10.0242 1.42574 10.185 1.59074 10.1875 2.08074C10.1883 2.25741 10.1875 2.43408 10.1875 2.65741L10.1858 2.65574Z" fill="#0C2C22"/>
<path d="M13.375 19.8838C13.375 16.4588 13.3775 13.0329 13.3691 9.60792C13.3691 9.35876 13.4133 9.28042 13.6833 9.28126C17.9208 9.29126 22.1583 9.29042 26.3958 9.28292C26.6583 9.28292 26.7591 9.32709 26.7441 9.61792C26.7166 10.1688 26.7316 10.7213 26.7375 11.2729C26.7425 11.7813 27.0241 12.0596 27.5341 12.0638C28.0966 12.0688 28.6591 12.0779 29.2208 12.0588C29.4558 12.0504 29.5091 12.1146 29.5083 12.3471C29.5 16.1679 29.5025 19.9888 29.5025 23.8096C29.5025 25.9438 29.4983 28.0779 29.5083 30.2129C29.5091 30.4463 29.4541 30.5013 29.2208 30.5013C24.0358 30.4938 18.8508 30.4929 13.6666 30.5021C13.41 30.5021 13.37 30.4229 13.3708 30.1921C13.3775 26.7563 13.3758 23.3204 13.3758 19.8846L13.375 19.8838Z" fill="#FED65C"/>
<path d="M3.14034 6.93489C3.83701 6.62072 4.53367 6.30739 5.23034 5.99239C8.41617 4.55405 11.6037 3.11739 14.7862 1.67239C14.9853 1.58239 15.1378 1.58655 15.3353 1.67655C19.162 3.41155 22.992 5.13822 26.8212 6.86655C26.867 6.88739 26.912 6.91072 26.9545 6.99155C26.612 6.99155 26.2695 6.98989 25.927 6.99155C25.4703 6.99405 25.3103 7.15489 25.3062 7.60989C25.3023 8.06155 25.077 8.28739 24.6303 8.28739C20.9345 8.28739 17.2387 8.28905 13.5428 8.28489C13.1753 8.28489 12.8362 8.33322 12.5895 8.64072C12.4328 8.83489 12.3728 9.05739 12.3737 9.30739C12.3787 10.2132 12.3678 11.1191 12.3812 12.0241C12.3845 12.2507 12.337 12.3199 12.0962 12.3174C10.7328 12.3041 9.36867 12.3107 8.00451 12.3107C7.41367 12.3107 7.27951 12.4474 7.27951 13.0524C7.27951 15.4257 7.27367 17.7999 7.28701 20.1732C7.28867 20.4549 7.21284 20.5141 6.94617 20.5057C6.33284 20.4866 5.71701 20.4882 5.10367 20.5116C4.84451 20.5216 4.80701 20.4299 4.80701 20.1999C4.81367 16.0457 4.81201 11.8924 4.81201 7.73822C4.81201 7.11905 4.68367 6.99072 4.06367 6.99072C3.76201 6.99072 3.45951 6.99072 3.15784 6.99072C3.15117 6.97155 3.14534 6.95239 3.13867 6.93322L3.14034 6.93489Z" fill="#FED65C"/>
<path d="M12.3751 16.9106C12.3751 18.0131 12.3693 19.1156 12.3801 20.2181C12.3826 20.4348 12.3284 20.4964 12.1068 20.4948C10.9209 20.4864 9.73511 20.4898 8.55011 20.5039C8.33511 20.5064 8.27261 20.4564 8.27345 20.2339C8.28178 18.0189 8.28178 15.8031 8.27345 13.5881C8.27345 13.3773 8.31761 13.3064 8.54345 13.3081C9.73928 13.3198 10.9359 13.3198 12.1318 13.3081C12.3501 13.3056 12.3801 13.3831 12.3793 13.5723C12.3709 14.6848 12.3751 15.7981 12.3751 16.9106Z" fill="#FED65C"/>
<path d="M7.58916 23.2454C6.07999 23.2454 4.57082 23.2404 3.06249 23.2512C2.83916 23.2529 2.78249 23.1887 2.79249 22.9745C2.80999 22.5904 2.81332 22.2037 2.79249 21.8195C2.77916 21.5737 2.85416 21.5045 3.09999 21.5054C4.98332 21.5104 6.86749 21.5012 8.75082 21.4962C9.87499 21.4937 10.9992 21.4954 12.1225 21.482C12.3258 21.4795 12.3883 21.532 12.38 21.7379C12.3633 22.1429 12.3608 22.5504 12.38 22.9554C12.3908 23.1745 12.3067 23.2054 12.115 23.2045C10.6058 23.1979 9.09749 23.2004 7.58832 23.2004C7.58832 23.2154 7.58832 23.2304 7.58832 23.2454H7.58916Z" fill="#FED65C"/>
<path d="M6.90389 4.13867C6.90389 3.5995 6.91056 3.11283 6.90056 2.62533C6.89639 2.45117 6.96889 2.4195 7.12139 2.42033C7.74389 2.427 8.36723 2.42867 8.98973 2.4195C9.16306 2.417 9.17973 2.48617 9.19473 2.63617C9.22973 2.97367 9.13723 3.17117 8.78889 3.30367C8.16306 3.54117 7.56139 3.84283 6.90389 4.13783V4.13867Z" fill="#FED65C"/>
<path d="M28.8174 11.0425C28.6949 11.0584 28.6657 11.0642 28.6374 11.065C27.9907 11.0778 27.699 10.7153 27.7624 9.97754C27.9615 10.1959 28.1099 10.3709 28.2707 10.5334C28.429 10.6934 28.5999 10.8417 28.8174 11.0425Z" fill="#FED65C"/>
<path d="M22.8132 15.5385C24.4398 17.0877 26.0673 18.6377 27.694 20.1877C28.0181 20.496 28.3448 20.8027 28.6623 21.1169C29.1398 21.5894 29.1415 22.1819 28.6732 22.6602C28.4915 22.846 28.3082 23.031 28.1215 23.2119C27.6257 23.6927 27.0465 23.6902 26.5573 23.1844C25.6823 22.2794 24.8173 21.3635 23.949 20.4519C23.0232 19.4802 22.0998 18.506 21.1698 17.5377C21.1082 17.4727 21.0473 17.2877 20.9232 17.4127C20.8198 17.5169 20.609 17.6177 20.7057 17.816C20.9548 18.3285 20.744 18.6902 20.3965 19.0669C19.6507 19.8769 19.1698 19.8877 18.414 19.076C17.7198 18.3302 16.9765 17.6294 16.2573 16.9069C15.7657 16.4127 15.7665 15.9419 16.2557 15.4469C16.4023 15.2985 16.5473 15.1502 16.6998 15.0077C16.9765 14.7494 17.3007 14.671 17.6482 14.826C17.8007 14.8935 17.8898 14.8602 18.0082 14.7719C18.8548 14.1385 19.6032 13.4077 20.2373 12.5594C20.3365 12.4269 20.3523 12.3385 20.2832 12.1785C20.1398 11.8469 20.204 11.5227 20.4548 11.2544C20.639 11.0569 20.8298 10.8635 21.0298 10.6827C21.4007 10.3477 21.8815 10.3302 22.2381 10.6785C23.1323 11.5502 24.0148 12.4335 24.8865 13.3277C25.2457 13.696 25.229 14.1802 24.8815 14.5644C24.7073 14.7569 24.5223 14.941 24.3298 15.116C24.1023 15.3219 23.8173 15.4577 23.5298 15.3285C23.204 15.1819 23.009 15.2977 22.8132 15.5394V15.5385Z" fill="#0C2C22"/>
<path d="M17.9349 24.5935C16.8732 24.5935 15.8124 24.5944 14.7507 24.5935C14.0916 24.5927 13.8666 24.3685 13.8649 23.7194C13.8649 23.3969 13.8607 23.0744 13.8657 22.7519C13.8732 22.3044 14.0982 22.0435 14.5399 22.0177C14.7282 22.0069 14.7891 21.9402 14.8166 21.771C14.8532 21.546 14.9049 21.3227 14.9657 21.1027C15.0782 20.6952 15.3816 20.4419 15.8032 20.4394C17.2082 20.431 18.6132 20.431 20.0174 20.4394C20.4532 20.4419 20.7599 20.7044 20.8699 21.126C20.8957 21.226 20.9199 21.3277 20.9366 21.4302C20.9899 21.756 21.0199 22.056 21.4907 22.0677C21.7799 22.0752 21.9474 22.3502 21.9582 22.6485C21.9741 23.0844 21.9824 23.5235 21.9557 23.9585C21.9299 24.3769 21.6582 24.5885 21.1816 24.5927C20.3182 24.5994 19.4541 24.5944 18.5907 24.5944C18.3724 24.5944 18.1541 24.5944 17.9349 24.5944V24.5935Z" fill="#0C2C22"/>
<path d="M19.9981 26.8672C18.4265 26.8672 16.854 26.8655 15.2823 26.8688C15.0473 26.8688 14.849 26.8172 14.7323 26.593C14.5773 26.2938 14.7556 25.9338 15.0906 25.8763C15.1823 25.8605 15.2773 25.868 15.3715 25.868C18.474 25.868 21.5765 25.868 24.679 25.868C24.7515 25.868 24.8256 25.8647 24.8973 25.8722C25.1698 25.8997 25.3648 26.1072 25.3665 26.3647C25.3681 26.6197 25.1723 26.833 24.9015 26.8638C24.819 26.873 24.7348 26.868 24.6515 26.868C23.1006 26.868 21.549 26.868 19.9981 26.868V26.8672Z" fill="#0C2C22"/>
<path d="M20.0256 28.8922C18.4856 28.8922 16.9448 28.8922 15.4048 28.8922C15.3006 28.8922 15.1948 28.8972 15.0931 28.8806C14.8473 28.8414 14.704 28.6897 14.684 28.4422C14.6631 28.1814 14.7823 27.9972 15.0381 27.9289C15.1565 27.8972 15.2848 27.8947 15.409 27.8947C18.479 27.8931 21.5498 27.8931 24.6198 27.8931C24.6506 27.8931 24.6823 27.8931 24.7131 27.8931C25.1256 27.8997 25.369 28.0881 25.3673 28.3997C25.3656 28.7147 25.1323 28.8922 24.7098 28.8922C23.149 28.8931 21.5873 28.8922 20.0265 28.8922H20.0256Z" fill="#0C2C22"/>
<path d="M27.2478 25.8695C27.4028 25.8695 27.5586 25.8611 27.7136 25.8711C28.0103 25.8903 28.1995 26.0911 28.197 26.3703C28.1953 26.6361 28.0136 26.8478 27.737 26.8611C27.3961 26.8778 27.0528 26.8778 26.712 26.8603C26.4445 26.8461 26.2503 26.6161 26.252 26.3628C26.2545 26.1078 26.4495 25.8945 26.7186 25.8736C26.8936 25.8603 27.0703 25.8711 27.247 25.8711C27.247 25.8711 27.247 25.8703 27.247 25.8695H27.2478Z" fill="#0C2C22"/>
<path d="M27.2193 28.8874C27.0534 28.8874 26.8876 28.8974 26.7226 28.8858C26.4493 28.8649 26.2443 28.6583 26.2543 28.4033C26.2651 28.1341 26.4068 27.9441 26.6809 27.9133C27.0509 27.8708 27.4259 27.8641 27.7943 27.9174C28.0676 27.9574 28.2068 28.1474 28.1934 28.4224C28.1801 28.6991 28.0201 28.8608 27.7459 28.8849C27.5718 28.9008 27.3943 28.8883 27.2184 28.8883L27.2193 28.8874Z" fill="#0C2C22"/>
<path d="M21.0839 13.085C21.5206 13.5266 21.9331 13.9516 22.3564 14.365C22.4798 14.4858 22.4331 14.5425 22.3248 14.6258C21.4798 15.2758 20.7239 16.0175 20.0714 16.86C19.9581 17.0066 19.8989 16.9766 19.7923 16.8658C19.4298 16.4933 19.0573 16.13 18.6914 15.76C18.6281 15.6958 18.5006 15.64 18.6564 15.5258C19.5839 14.8441 20.3839 14.0325 21.0848 13.085H21.0839Z" fill="#FED65C"/>
<path d="M27.3738 22.5976C25.8005 20.946 24.2663 19.336 22.7321 17.726C22.4163 17.3951 22.113 17.051 21.7788 16.7393C21.5813 16.5551 21.7363 16.4818 21.8388 16.3785C21.9405 16.276 22.0046 16.1385 22.1946 16.3218C23.7738 17.8443 25.3655 19.3535 26.9538 20.8668C27.2621 21.161 27.5671 21.4593 27.8821 21.746C28.003 21.8551 28.0088 21.9226 27.8871 22.0385C27.7071 22.2093 27.5496 22.4043 27.3738 22.5985V22.5976Z" fill="#FED65C"/>
<path d="M24.1545 13.9164C23.9853 14.0673 23.8786 14.1798 23.7545 14.2664C23.6603 14.3323 23.6186 14.2139 23.5703 14.1656C22.8478 13.4489 22.1361 12.7206 21.4053 12.0123C21.2228 11.8356 21.3411 11.7673 21.4503 11.6564C21.557 11.5481 21.6245 11.4556 21.787 11.6231C22.4953 12.3539 23.2211 13.0681 23.9428 13.7864C23.9861 13.8298 24.0486 13.8523 24.1545 13.9164Z" fill="#FED65C"/>
<path d="M17.2932 15.7812C17.3766 15.8604 17.4216 15.9013 17.4649 15.9446C18.1849 16.6646 18.8966 17.3921 19.6291 18.0988C19.8224 18.2854 19.6791 18.3488 19.5774 18.4579C19.4749 18.5679 19.4091 18.6571 19.2474 18.4904C18.5391 17.7596 17.8116 17.0471 17.0957 16.3246C17.0441 16.2721 16.9082 16.2288 17.0041 16.1104C17.0941 15.9988 17.1932 15.8954 17.2932 15.7812Z" fill="#FED65C"/>
<path d="M17.9105 23.5978C16.9964 23.5978 16.0822 23.5894 15.168 23.6036C14.9255 23.6078 14.853 23.5453 14.8555 23.2969C14.858 23.0661 14.9122 23.0028 15.1489 23.0044C16.998 23.0153 18.848 23.0161 20.6972 23.0044C20.9505 23.0028 20.9755 23.0961 20.9814 23.3094C20.988 23.5444 20.9189 23.6069 20.6847 23.6036C19.7605 23.5894 18.8355 23.5978 17.9105 23.5978Z" fill="#FED65C"/>
<path d="M20.0243 22.0098C18.6535 22.0098 17.3135 22.0082 15.9735 22.0123C15.8368 22.0123 15.7927 21.9782 15.8168 21.8357C15.861 21.5698 15.9285 21.414 16.2743 21.4248C17.3227 21.4573 18.3735 21.4365 19.4227 21.4365C19.7721 21.4365 19.9724 21.6276 20.0235 22.0098H20.0243Z" fill="#FED65C"/>
</g>
<defs>
<clipPath id="clip0_1_3315">
<rect width="32" height="32" fill="white"/>
</clipPath>
</defs>
</svg>
