<svg width="16" height="16" viewBox="0 0 16 16" fill="none" xmlns="http://www.w3.org/2000/svg">
<path d="M4.66667 6.66671H3.33333V5.33337C3.33333 4.96671 3.03333 4.66671 2.66667 4.66671C2.3 4.66671 2 4.96671 2 5.33337V6.66671H0.666667C0.3 6.66671 0 6.96671 0 7.33337C0 7.70004 0.3 8.00004 0.666667 8.00004H2V9.33337C2 9.70004 2.3 10 2.66667 10C3.03333 10 3.33333 9.70004 3.33333 9.33337V8.00004H4.66667C5.03333 8.00004 5.33333 7.70004 5.33333 7.33337C5.33333 6.96671 5.03333 6.66671 4.66667 6.66671ZM12 7.33337C13.1067 7.33337 13.9933 6.44004 13.9933 5.33337C13.9933 4.22671 13.1067 3.33337 12 3.33337C11.7867 3.33337 11.58 3.36671 11.3933 3.42671C11.7733 3.96671 11.9933 4.62004 11.9933 5.33337C11.9933 6.04671 11.7667 6.69337 11.3933 7.24004C11.58 7.30004 11.7867 7.33337 12 7.33337ZM8.66667 7.33337C9.77333 7.33337 10.66 6.44004 10.66 5.33337C10.66 4.22671 9.77333 3.33337 8.66667 3.33337C7.56 3.33337 6.66667 4.22671 6.66667 5.33337C6.66667 6.44004 7.56 7.33337 8.66667 7.33337ZM8.66667 8.66671C7.33333 8.66671 4.66667 9.33337 4.66667 10.6667V11.3334C4.66667 11.7 4.96667 12 5.33333 12H12C12.3667 12 12.6667 11.7 12.6667 11.3334V10.6667C12.6667 9.33337 10 8.66671 8.66667 8.66671ZM13.08 8.77337C13.6333 9.26004 14 9.88004 14 10.6667V11.6667C14 11.78 13.9867 11.8934 13.9667 12H15.6667C15.8533 12 16 11.8534 16 11.6667V10.6667C16 9.64004 14.42 9.00671 13.08 8.77337Z" fill="#10382C"/>
</svg>
