<svg width="64" height="48" viewBox="0 0 64 48" fill="none" xmlns="http://www.w3.org/2000/svg">
<g clip-path="url(#clip0_0_438)">
<path d="M49.4363 14.0596C49.4206 17.6951 47.9675 20.8006 45.9321 23.6754C42.4068 28.6642 37.7223 32.4308 32.8331 35.9875C32.3137 36.3652 31.8731 36.5751 31.2698 36.1292C25.5098 31.8695 19.8809 27.4839 16.3714 21.0314C14.5196 17.6216 13.9373 13.9914 15.0285 10.2249C17.1006 3.08522 25.3682 0.955383 30.6455 6.21702C31.6685 7.23473 32.1773 7.50226 33.279 6.25898C35.9072 3.27931 39.3905 2.80194 43.0049 3.86161C46.6455 4.92653 48.4029 7.80128 49.1635 11.337C49.3524 12.2236 49.3524 13.1521 49.4363 14.0596Z" fill="#FED65C"/>
<path d="M9.4541 28.3257C8.63574 26.8359 7.78067 25.3513 7.69149 23.5939C7.64952 22.7388 7.60231 21.7998 8.46789 21.3067C9.3492 20.8084 10.2515 21.0969 11.0593 21.6267C12.3498 22.4661 13.3675 23.5887 14.0915 24.9159C17.003 30.2248 20.9531 34.4005 26.54 37.0077C29.2102 38.251 29.9761 40.748 30.1072 43.5336C30.2856 47.3736 30.3118 47.4733 26.4928 47.0956C15.4082 46.0097 7.20361 40.5015 2.60296 30.4031C-1.89278 20.5303 -0.707204 10.9251 5.42525 1.95457C5.64558 1.62933 5.88165 1.30933 6.14394 1.0208C6.57935 0.543427 7.01476 -0.0755884 7.78066 0.333592C8.50459 0.721789 8.72492 1.44572 8.5046 2.19064C8.1846 3.25031 7.92231 4.38868 7.32952 5.29622C5.65083 7.87196 5.23115 10.7362 4.97935 13.6844C4.75902 16.2811 5.0423 18.8831 5.06329 21.4641C5.08427 24.3126 7.24559 26.5421 9.0869 28.693C9.25477 28.8451 9.40165 28.7926 9.5223 28.63C9.59575 28.5251 9.56428 28.4202 9.44887 28.3205L9.4541 28.3257Z" fill="#F6F6F6"/>
<path d="M55.875 27.5609C57.7897 25.0638 59.5209 22.6664 58.97 19.0835C58.629 16.8382 59.1589 14.4094 58.97 12.0592C58.7497 9.34184 57.6376 6.93922 56.4258 4.5261C55.812 3.30381 54.532 1.452 56.2527 0.518234C57.9838 -0.426028 58.5294 1.79823 59.2061 2.85266C65.2756 12.3477 65.9209 22.2887 60.5858 32.193C55.3609 41.8874 46.8677 46.7399 35.8304 47.2172C34.1045 47.2907 33.8946 46.6874 33.8527 45.1556C33.7478 40.8645 35.2376 37.7799 39.3556 35.9386C43.8199 33.9451 46.8101 30.294 49.2232 26.155C50.1832 24.5077 51.2271 22.934 52.8009 21.7904C53.6402 21.1766 54.5845 20.7884 55.5497 21.292C56.5937 21.8376 56.5464 22.9287 56.3523 23.8992C56.132 24.9799 55.7438 26.0238 55.4238 27.0835C55.2822 27.4559 55.3871 27.9228 55.0199 28.1694C55.0409 28.1432 55.0671 28.1694 55.0828 28.1536C55.3241 27.8913 55.5812 27.7025 55.875 27.5661V27.5609Z" fill="#F6F6F6"/>
<path d="M6.38855 15.7488C6.38855 12.6642 6.72429 9.63729 8.04626 6.79926C8.34003 6.16975 8.59184 5.37237 9.51512 5.45631C10.3177 5.52975 10.7164 6.15925 11.0469 6.82024C11.6817 8.07925 11.6187 9.34352 11.005 10.5763C9.81413 12.9737 8.73347 15.4025 8.20888 18.0517C8.08298 18.7022 7.94659 19.6989 7.01806 19.5573C6.21544 19.4366 6.49872 18.4819 6.40954 17.8891C6.30462 17.1861 6.38331 16.457 6.38331 15.7435L6.38855 15.7488Z" fill="#F6F6F6"/>
<path d="M57.7896 16.1619C57.7214 17.017 57.6952 17.7987 57.585 18.5698C57.5273 18.979 57.6217 19.5875 56.9765 19.619C56.4309 19.64 56.1738 19.1573 56.0847 18.7219C55.4342 15.6373 54.1332 12.8098 52.8427 9.95603C52.5489 9.30029 52.6276 8.40325 52.7483 7.64784C52.9109 6.66161 53.3778 5.66489 54.4637 5.49177C55.665 5.29768 55.8801 6.45701 56.2263 7.24915C57.4801 10.1134 57.6794 13.1665 57.7896 16.1619Z" fill="#F6F6F6"/>
</g>
<defs>
<clipPath id="clip0_0_438">
<rect width="64" height="47.2131" fill="white"/>
</clipPath>
</defs>
</svg>
