<svg width="20" height="20" viewBox="0 0 20 20" fill="none" xmlns="http://www.w3.org/2000/svg">
<g clip-path="url(#clip0_0_458)">
<path d="M10.0008 1.32814C2.27584 1.32564 -1.59333 10.664 3.8675 16.1265C5.07981 17.3391 6.6245 18.165 8.30622 18.4997C9.98793 18.8344 11.7311 18.6628 13.3153 18.0068C14.8995 17.3507 16.2536 16.2395 17.2063 14.8139C18.159 13.3882 18.6675 11.712 18.6675 9.99731C18.6675 5.21064 14.7883 1.32981 10.0008 1.32814ZM5.09167 5.65231C5.50917 3.48731 8.33584 2.90731 9.57167 4.73314C10.8075 6.55898 9.22 8.96814 7.055 8.55148C6.73567 8.49013 6.43156 8.36647 6.16005 8.18755C5.88853 8.00862 5.65493 7.77795 5.4726 7.50871C5.29027 7.23947 5.16278 6.93695 5.09742 6.61841C5.03206 6.29988 5.03011 5.97159 5.09167 5.65231ZM8.69334 13.1423C8.27334 15.3065 5.44667 15.8823 4.2125 14.0556C2.97834 12.229 4.56834 9.82231 6.73334 10.2398C7.05271 10.3015 7.35678 10.4256 7.62817 10.6049C7.89956 10.7842 8.13295 11.0152 8.31498 11.2848C8.49701 11.5543 8.62413 11.8572 8.68905 12.1759C8.75397 12.4946 8.75543 12.823 8.69334 13.1423ZM9.74334 11.1381C8.78334 10.9523 8.525 9.69898 9.33417 9.14898C10.1425 8.59898 11.2142 9.29897 11.0342 10.2606C11.0075 10.4032 10.9529 10.539 10.8735 10.6603C10.7941 10.7817 10.6915 10.8861 10.5717 10.9677C10.4518 11.0492 10.3169 11.1063 10.1749 11.1355C10.0329 11.1648 9.8857 11.1657 9.74334 11.1381ZM14.9092 14.3365C14.4917 16.5015 11.665 17.0806 10.4292 15.2556C9.19334 13.4306 10.78 11.0206 12.9458 11.4365C13.2653 11.4978 13.5694 11.6215 13.841 11.8005C14.1126 11.9795 14.3462 12.2102 14.5286 12.4795C14.7109 12.7489 14.8384 13.0515 14.9037 13.3701C14.969 13.6888 14.9709 14.0171 14.9092 14.3365ZM13.27 9.75147C11.105 9.33397 10.5258 6.50481 12.3517 5.26814C14.1775 4.03148 16.5858 5.61981 16.17 7.78481C16.109 8.10452 15.9856 8.40907 15.8068 8.68103C15.628 8.95298 15.3973 9.18699 15.1279 9.36967C14.8586 9.55235 14.5558 9.6801 14.237 9.74562C13.9182 9.81113 13.5896 9.81312 13.27 9.75147ZM11.325 19.3865L13.2117 19.8948C14.005 20.1053 14.8494 19.9922 15.5594 19.5802C16.2693 19.1683 16.7866 18.4913 16.9975 17.6981L17.5308 15.6965C16.0295 17.6968 13.7987 19.0231 11.3242 19.3865M17.6933 2.99898L15.7242 2.47481C16.7192 3.24039 17.5523 4.19592 18.1751 5.28597C18.7979 6.37602 19.1981 7.57889 19.3525 8.82481L19.8942 6.77564C20.1015 5.98303 19.9862 5.14057 19.5735 4.43282C19.1608 3.72508 18.4844 3.20977 17.6925 2.99981M0.560004 11.5073L0.10917 13.2073C-0.101331 14.0006 0.011815 14.8451 0.423735 15.555C0.835656 16.2649 1.51263 16.7822 2.30584 16.9931L4.06167 17.4615C2.18712 15.9877 0.93741 13.8618 0.560004 11.5073ZM8.63084 0.584808L6.79167 0.104808C6.39858 9.49899e-05 5.9887 -0.0261187 5.58547 0.0276659C5.18224 0.0814504 4.79356 0.214179 4.44166 0.418263C4.08976 0.622347 3.78152 0.893786 3.53458 1.21706C3.28764 1.54034 3.10684 1.90911 3.0025 2.30231L2.54334 4.03731C4.05833 2.15227 6.23541 0.917239 8.63084 0.584808Z" fill="white"/>
</g>
<defs>
<clipPath id="clip0_0_458">
<rect width="20" height="20" fill="white"/>
</clipPath>
</defs>
</svg>
