<svg width="32" height="32" viewBox="0 0 32 32" fill="none" xmlns="http://www.w3.org/2000/svg">
<g clip-path="url(#clip0_1_3340)">
<path d="M8.00212 3.2738C8.45129 3.07047 8.86296 2.8838 9.27546 2.6988C10.0871 2.33297 10.9013 1.97214 11.7105 1.59964C11.9163 1.50464 12.1013 1.50213 12.3055 1.59464C15.8346 3.18964 19.3646 4.7813 22.8938 6.37714C23.3321 6.57547 23.5255 6.9288 23.4338 7.31547C23.3388 7.7163 23.0338 7.93214 22.5488 7.9363C22.2888 7.9388 22.028 7.95047 21.7696 7.93214C21.5638 7.91797 21.5105 7.98464 21.5113 8.18964C21.5196 9.84214 21.5163 11.4938 21.5163 13.1463C21.5163 13.2396 21.5221 13.3338 21.513 13.4271C21.4855 13.7171 21.2705 13.9171 21.0013 13.9096C20.7296 13.9021 20.5246 13.6988 20.5221 13.4005C20.5146 12.6105 20.5188 11.8213 20.5188 11.0313C20.5188 9.9088 20.5188 8.7863 20.5188 7.66464C20.5188 7.0763 20.658 6.94047 21.2596 6.93964C21.363 6.93964 21.4663 6.93964 21.5671 6.93964C21.5921 6.84714 21.5171 6.8538 21.483 6.83797C18.388 5.43797 15.2921 4.0413 12.198 2.6413C12.0646 2.5813 11.9555 2.5813 11.8221 2.6413C8.73712 4.03714 5.65129 5.42964 2.56462 6.82297C2.52046 6.84297 2.48046 6.86964 2.35546 6.93964C2.55879 6.93964 2.67629 6.93964 2.79379 6.93964C3.35129 6.94047 3.50212 7.08797 3.50212 7.63464C3.50212 10.253 3.50212 12.8721 3.50212 15.4905C3.50212 16.3321 3.51046 17.1738 3.49629 18.0155C3.49296 18.2363 3.55379 18.2946 3.77046 18.2863C4.23712 18.2688 4.70629 18.2696 5.17296 18.2863C5.38546 18.2938 5.42629 18.2205 5.42629 18.0238C5.41962 16.0496 5.42212 14.0746 5.42212 12.1005C5.42212 11.5421 5.55712 11.4096 6.12379 11.4096C7.67212 11.4096 9.22046 11.4096 10.7688 11.4096C11.2621 11.4096 11.4188 11.5671 11.4188 12.0613C11.4188 14.0355 11.4238 16.0105 11.413 17.9846C11.4113 18.2296 11.4746 18.2913 11.7171 18.2871C12.7038 18.273 13.6913 18.2805 14.6788 18.2813C15.1446 18.2813 15.3938 18.4596 15.3896 18.7888C15.3855 19.1163 15.1455 19.2788 14.6663 19.2788C14.6146 19.2788 14.5621 19.2788 14.5105 19.2788H10.4888C7.70379 19.2788 4.91879 19.2821 2.13379 19.273C1.88046 19.2721 1.78379 19.3221 1.81046 19.5896C1.83629 19.8571 1.82212 20.1296 1.81379 20.3996C1.80962 20.538 1.85962 20.588 1.99379 20.5738C2.06546 20.5663 2.13879 20.5721 2.21212 20.5721C6.12962 20.5721 10.0471 20.5721 13.9655 20.5721C14.0796 20.5721 14.1955 20.5655 14.308 20.5796C14.5546 20.6096 14.7055 20.7546 14.7338 21.0005C14.7638 21.258 14.6538 21.4405 14.4038 21.5338C14.2821 21.5796 14.158 21.5688 14.0338 21.5688C9.86629 21.5688 5.69962 21.5688 1.53212 21.5688C0.964624 21.5688 0.817958 21.4196 0.817124 20.8455C0.817124 20.2113 0.816291 19.578 0.817124 18.9438C0.817958 18.4405 0.981291 18.2821 1.49462 18.2805C1.75462 18.2805 2.01546 18.2646 2.27379 18.2855C2.47879 18.3013 2.50712 18.2213 2.50712 18.0396C2.50212 14.7555 2.50129 11.4721 2.50712 8.18797C2.50712 7.98214 2.45212 7.91714 2.24796 7.9313C1.99962 7.9488 1.74962 7.93714 1.50046 7.93547C0.989624 7.93214 0.680458 7.7213 0.584624 7.3138C0.491291 6.91464 0.695458 6.57297 1.15546 6.36547C2.08046 5.94797 3.00212 5.52214 3.93296 5.11964C4.17296 5.01547 4.27796 4.9013 4.26462 4.62297C4.23796 4.05297 4.25379 3.48047 4.25712 2.9088C4.25962 2.45964 4.43212 2.28214 4.87879 2.27964C5.67879 2.27464 6.47879 2.27714 7.27962 2.27797C7.86212 2.27797 7.99546 2.4113 7.99962 2.9888C7.99962 3.06797 7.99962 3.14797 7.99962 3.27297L8.00212 3.2738Z" fill="#0C2C22"/>
<path d="M28.0568 19.3869C28.041 19.4394 28.0402 19.5244 27.9977 19.5752C27.5852 20.0802 27.9618 20.5194 28.1043 20.9794C28.1427 21.1027 28.2585 21.1069 28.3493 21.1436C28.8177 21.3302 29.0518 21.6769 29.0518 22.1836C29.0518 22.4644 29.0477 22.7444 29.0527 23.0252C29.0577 23.3211 28.936 23.5627 28.6468 23.6094C28.0135 23.7111 27.9952 24.2819 27.7793 24.6944C27.7102 24.8261 27.8652 24.9786 27.926 25.1186C28.1243 25.5769 28.1085 25.6719 27.7585 26.0236C27.5093 26.2736 27.256 26.5202 27.0102 26.7736C26.8035 26.9869 26.5535 27.0702 26.3118 26.8969C25.7918 26.5236 25.3793 26.9202 24.9327 27.0544C24.8177 27.0894 24.816 27.2436 24.7752 27.3461C24.5335 27.9594 24.5102 27.9786 23.8443 27.9786C23.5435 27.9786 23.2418 27.9727 22.941 27.9802C22.6185 27.9877 22.3768 27.8586 22.3227 27.5344C22.2185 26.9086 21.6393 26.9236 21.2385 26.7102C21.1143 26.6436 20.9543 26.8011 20.8135 26.8611C20.3693 27.0511 20.2743 27.0369 19.9335 26.6969C19.6835 26.4477 19.4385 26.1927 19.1827 25.9502C18.9577 25.7361 18.8702 25.4794 19.0535 25.2269C19.4343 24.7036 19.0252 24.2936 18.8802 23.8544C18.8318 23.7094 18.5977 23.7069 18.446 23.6461C18.0477 23.4869 17.9685 23.3802 17.9677 22.9527C17.9677 22.5894 17.9743 22.2252 17.9652 21.8619C17.9577 21.5502 18.0793 21.3119 18.3877 21.2627C19.0268 21.1611 19.0268 20.5769 19.2335 20.1627C19.286 20.0577 19.1402 19.8377 19.0593 19.6852C18.8977 19.3811 18.9552 19.1361 19.2027 18.9061C19.4685 18.6586 19.7268 18.4019 19.9735 18.1344C20.2043 17.8844 20.4752 17.8011 20.7493 17.9961C21.2702 18.3661 21.6643 17.9344 22.0985 17.8044C22.1943 17.7761 22.2318 17.5402 22.2885 17.3969C22.4577 16.9694 22.5502 16.9027 23.0002 16.9019C23.3535 16.9019 23.7068 16.9144 24.0593 16.8986C24.4018 16.8836 24.6418 17.0202 24.6993 17.3536C24.8077 17.9802 25.3918 17.9552 25.7927 18.1636C25.8943 18.2161 26.1118 18.0602 26.2693 17.9844C26.5585 17.8452 26.801 17.8802 27.026 18.1202C27.2952 18.4086 27.581 18.6819 27.8618 18.9594C27.9777 19.0736 28.051 19.2044 28.0577 19.3886L28.0568 19.3869Z" fill="#0C2C22"/>
<path d="M29.5321 25.9714C31.9638 21.7089 29.5104 16.4106 24.7146 15.5506C23.1446 15.2689 21.6362 15.5106 20.2204 16.2664C20.1562 16.3006 20.0937 16.3373 20.0287 16.3698C19.7321 16.5181 19.4354 16.4448 19.3037 16.1914C19.1754 15.9456 19.2646 15.6673 19.5387 15.5048C19.9496 15.2606 20.3829 15.0648 20.8346 14.9064C25.6179 13.2323 30.6896 16.2981 31.4171 21.3206C31.6721 23.0806 31.3471 24.7498 30.4896 26.3098C30.4029 26.4681 30.3104 26.5731 30.5846 26.6381C30.7787 26.6848 30.8729 26.8623 30.8779 27.0706C30.8829 27.2939 30.7804 27.4698 30.5787 27.5348C30.1062 27.6873 29.6287 27.8306 29.1446 27.9398C28.8146 28.0139 28.5846 27.8023 28.5637 27.4564C28.5404 27.0731 28.5271 26.6881 28.5129 26.3048C28.4979 25.8764 28.5987 25.6864 28.8796 25.6031C29.1229 25.5314 29.2971 25.6273 29.5329 25.9714H29.5321Z" fill="#0C2C22"/>
<path d="M16.6686 18.2959C16.3461 18.2476 16.1469 18.1051 16.1419 17.7917C16.1361 17.4767 16.3386 17.3417 16.6186 17.2701C16.9994 17.1717 17.3753 17.0526 17.7553 16.9501C18.1711 16.8376 18.4428 17.0401 18.4619 17.4742C18.4786 17.8376 18.4828 18.2009 18.5053 18.5634C18.5244 18.8642 18.4928 19.1451 18.1653 19.2526C17.8444 19.3576 17.6336 19.1842 17.4953 18.8759C16.7828 20.1051 16.4444 21.4109 16.5478 22.7992C16.7536 25.5492 18.0836 27.5926 20.5886 28.7701C22.6694 29.7484 24.7703 29.6484 26.8178 28.5901C26.8544 28.5709 26.8911 28.5509 26.9278 28.5317C27.2761 28.3476 27.5586 28.4001 27.7078 28.6784C27.8569 28.9559 27.7469 29.2159 27.3978 29.4109C22.5386 32.1251 16.4119 29.1192 15.6078 23.6167C15.3494 21.8484 15.6453 20.1676 16.5061 18.5934C16.5553 18.5034 16.6044 18.4126 16.6678 18.2976L16.6686 18.2959Z" fill="#0C2C22"/>
<path d="M15.4704 13.3235C14.7437 13.3235 14.017 13.3252 13.2912 13.3235C12.7537 13.3219 12.6004 13.1702 12.6004 12.6435C12.6004 11.5852 12.5987 10.526 12.6004 9.46769C12.6004 9.01269 12.762 8.84269 13.2137 8.84186C14.7395 8.83852 16.2645 8.83852 17.7904 8.84186C18.2412 8.84269 18.4029 9.01352 18.4029 9.46852C18.4045 10.5377 18.4045 11.606 18.4029 12.6752C18.4029 13.1594 18.2395 13.3202 17.7429 13.3227C16.9854 13.326 16.2279 13.3235 15.4704 13.3235Z" fill="#0C2C22"/>
<path d="M10.421 15.3452C10.421 16.2377 10.4169 17.1302 10.4244 18.0227C10.426 18.2094 10.401 18.2902 10.1802 18.2877C9.0077 18.2752 7.83437 18.2752 6.66187 18.2877C6.4427 18.2902 6.4152 18.2111 6.41603 18.0227C6.42187 16.2377 6.42187 14.4519 6.41603 12.6669C6.41603 12.4794 6.44187 12.3994 6.66187 12.4019C7.83437 12.4144 9.0077 12.4144 10.1802 12.4019C10.4019 12.3994 10.426 12.4811 10.4244 12.6669C10.416 13.5594 10.421 14.4519 10.421 15.3444V15.3452Z" fill="#FED65C"/>
<path d="M5.25548 4.51601C5.25548 4.13268 5.26298 3.79351 5.25215 3.45518C5.24715 3.28601 5.33715 3.27518 5.46548 3.27601C5.90132 3.27935 6.33715 3.27518 6.77298 3.27935C6.86382 3.28018 7.00965 3.22768 6.99965 3.40018C6.99215 3.53018 7.08298 3.69518 6.89132 3.78018C6.35632 4.01851 5.82215 4.26101 5.25548 4.51685V4.51601Z" fill="#FED65C"/>
<path d="M26.9413 19.505C26.888 19.6234 26.838 19.7484 26.778 19.8684C26.6721 20.0792 26.6696 20.2784 26.7955 20.4875C26.9838 20.7992 27.1263 21.1325 27.208 21.4892C27.2746 21.7825 27.4888 21.9175 27.7555 21.9759C28.0463 22.0392 28.058 22.23 28.0646 22.4775C28.0713 22.7225 27.983 22.8367 27.7613 22.8909C27.4255 22.9717 27.2396 23.1775 27.1671 23.5259C27.1171 23.7642 27.0163 24.0059 26.8838 24.2109C26.6738 24.5359 26.638 24.8467 26.8563 25.1642C27.0038 25.3792 26.8896 25.4975 26.7405 25.63C26.5921 25.7617 26.4896 25.9584 26.2313 25.7825C25.9305 25.5767 25.6205 25.5834 25.3063 25.8042C25.1046 25.9459 24.8655 26.0392 24.6205 26.0875C24.2555 26.1592 24.0188 26.3584 23.9505 26.7259C23.8996 26.9959 23.7155 26.9859 23.5088 26.985C23.303 26.985 23.1238 26.9959 23.0696 26.7267C22.9971 26.3659 22.7671 26.1567 22.398 26.0875C22.153 26.0417 21.9138 25.9459 21.7121 25.805C21.398 25.585 21.0913 25.5825 20.7855 25.7817C20.5755 25.9184 20.4555 25.8267 20.3213 25.6759C20.188 25.5259 19.9888 25.415 20.1613 25.1625C20.3796 24.8434 20.3405 24.5334 20.1305 24.21C20.003 24.0142 19.9021 23.7825 19.858 23.5542C19.7855 23.1792 19.5846 22.9542 19.223 22.8809C18.958 22.8275 18.9505 22.6542 18.9621 22.4434C18.973 22.2517 18.9238 22.0592 19.2105 22.0034C19.5796 21.9309 19.788 21.6934 19.863 21.3075C19.9096 21.0692 20.0213 20.8317 20.1521 20.625C20.3405 20.3292 20.3688 20.0484 20.1838 19.755C20.0596 19.5575 20.0788 19.4159 20.2596 19.2509C20.4388 19.0884 20.5788 18.9425 20.8338 19.1134C21.1121 19.3 21.3921 19.2792 21.6746 19.0909C21.8905 18.9467 22.1338 18.8359 22.3863 18.7892C22.7596 18.7209 22.9996 18.5217 23.063 18.16C23.118 17.85 23.3246 17.9117 23.5263 17.8967C23.7463 17.88 23.9013 17.9125 23.9546 18.1667C24.028 18.5134 24.2446 18.7134 24.6055 18.7859C24.8246 18.83 25.0513 18.9142 25.2355 19.0384C25.5855 19.2734 25.9155 19.2909 26.2788 19.0842C26.448 18.9875 26.938 19.3109 26.9405 19.5084L26.9413 19.505Z" fill="#FED65C"/>
<path d="M15.4997 9.83933C16.0497 9.83933 16.5989 9.84682 17.1489 9.83516C17.3389 9.83099 17.4172 9.86516 17.4122 10.0827C17.3964 10.756 17.4005 11.431 17.4105 12.1052C17.413 12.2827 17.3605 12.3327 17.1847 12.331C16.0647 12.3235 14.9447 12.3243 13.8247 12.331C13.6555 12.3318 13.5905 12.2943 13.5939 12.1102C13.6047 11.426 13.6047 10.741 13.5939 10.0568C13.5914 9.87683 13.6464 9.83266 13.8205 9.83599C14.3805 9.84683 14.9405 9.84016 15.5005 9.84016L15.4997 9.83933Z" fill="#FED65C"/>
<path d="M23.5092 19.5625C25.0976 19.565 26.3809 20.8442 26.3834 22.4283C26.3859 24.0192 25.0776 25.3258 23.4917 25.3158C21.9126 25.3058 20.6326 24.0117 20.6367 22.4275C20.6401 20.8392 21.9217 19.5608 23.5092 19.5633V19.5625Z" fill="#0C2C22"/>
<path d="M21.6348 22.4317C21.6364 21.3908 22.4731 20.5592 23.5148 20.5625C24.5556 20.5667 25.3889 21.4042 25.3864 22.4433C25.3839 23.475 24.5331 24.3233 23.5031 24.32C22.4689 24.3167 21.6331 23.4717 21.6356 22.4317H21.6348Z" fill="#FED65C"/>
</g>
<defs>
<clipPath id="clip0_1_3340">
<rect width="32" height="32" fill="white"/>
</clipPath>
</defs>
</svg>
