<svg width="12" height="12" viewBox="0 0 12 12" fill="none" xmlns="http://www.w3.org/2000/svg">
<path fill-rule="evenodd" clip-rule="evenodd" d="M2.05739 0.741962L2.82135 0L3.60131 0.749962L2.82535 1.49092L2.05739 0.741962ZM5.28723 3.22184C5.28723 3.8438 5.12723 4.33278 4.80925 4.68876C4.60826 4.90975 4.34727 5.07874 4.02629 5.19374C3.67712 5.30892 3.31095 5.36403 2.94335 5.35673H2.38837C1.9674 5.35673 1.58741 5.28273 1.24943 5.13374C0.884301 4.98011 0.571652 4.72374 0.349478 4.39578C0.112627 4.02332 -0.00879101 3.58913 0.000495542 3.14784C0.000495542 3.08884 0.00149544 3.03085 0.00449529 2.97185C0.0344938 2.42188 0.208485 1.81391 0.529469 1.14494L1.62441 1.62892C1.36743 2.16089 1.22743 2.62887 1.20543 3.03185C1.20343 3.07184 1.20143 3.11184 1.20143 3.15184C1.20143 3.40383 1.25643 3.60982 1.36743 3.76981C1.48675 3.94344 1.66399 4.06892 1.8674 4.12379C1.9524 4.15179 2.04539 4.17179 2.14539 4.18379C2.22438 4.19379 2.30538 4.19779 2.38837 4.19779H2.94335C3.40132 4.19779 3.71231 4.11679 3.8763 3.9538C4.01629 3.81481 4.08629 3.57082 4.08629 3.22284V1.01995H5.28623V3.22184H5.28723ZM10.72 6.40567L9.99999 5.70571L10.709 4.99975L11.4439 5.70671L10.72 6.40567ZM7.8641 6.71366C8.40607 6.71366 8.83705 6.90365 9.15703 7.28263C9.45401 7.62861 9.60201 8.05959 9.60201 8.57556V8.93954H9.782V8.93555H10.192C10.413 8.93555 10.569 8.90755 10.659 8.85155C10.7519 8.79655 10.7989 8.71156 10.7989 8.59356V8.52457C10.8029 8.28158 10.8159 7.48062 10.7989 7.40962L11.9999 7.04964V8.62356C12.0029 8.93514 11.9019 9.23882 11.7129 9.48652C11.4069 9.8915 10.9089 10.0935 10.218 10.0935H9.59101C9.53001 10.8264 9.15703 11.3504 8.47406 11.6664C8.20708 11.7884 7.89409 11.8764 7.53711 11.9314C7.23468 11.9776 6.92909 12 6.62316 11.9984V10.8394C7.23513 10.8394 7.6951 10.7575 8.00309 10.5925C8.25308 10.4605 8.37907 10.2945 8.37907 10.0935H7.8641C7.42812 10.0935 7.05714 9.98049 6.75115 9.7545C6.38417 9.48152 6.20118 9.08754 6.20118 8.57456C6.20118 8.08659 6.32317 7.67361 6.56816 7.33463C6.86415 6.91965 7.29612 6.71266 7.8641 6.71266V6.71366ZM8.39707 8.93954V8.57556C8.39707 8.35858 8.34907 8.18658 8.25408 8.05959C8.20914 7.9991 8.15015 7.95046 8.08221 7.91788C8.01426 7.8853 7.9394 7.86976 7.8641 7.8726C7.78797 7.86996 7.71231 7.88555 7.64343 7.91808C7.57455 7.95061 7.51444 7.99912 7.46812 8.05959C7.37286 8.18934 7.32487 8.34777 7.33212 8.50857C7.33197 8.53094 7.33297 8.5533 7.33512 8.57556C7.34312 8.70056 7.40112 8.79555 7.51211 8.85855C7.60511 8.91255 7.7221 8.93855 7.8641 8.93855L8.39707 8.93954ZM8.50006 5.70671L9.22003 6.40667L9.94399 5.70671L9.20903 4.99975L8.50006 5.70671ZM1.8064 10.5945H1.8364C2.26938 10.5845 2.58136 10.4885 2.77335 10.3045C2.79735 10.3165 2.83835 10.3395 2.89335 10.3725L2.96734 10.4115L3.04834 10.4535C3.18333 10.5265 3.30933 10.5865 3.42732 10.6335C3.7723 10.7795 4.09729 10.8534 4.40427 10.8534C4.56453 10.8569 4.7239 10.8287 4.8732 10.7703C5.0225 10.712 5.15879 10.6247 5.27423 10.5135C5.57421 10.2285 5.7232 9.7995 5.7232 9.22753C5.71965 8.82224 5.60369 8.42588 5.38822 8.08259C5.08924 7.62561 4.65626 7.39762 4.08829 7.39762C3.58631 7.39762 3.17233 7.58961 2.84635 7.97259C2.73336 8.10459 2.63636 8.25658 2.55237 8.42857C2.52037 8.49057 2.49237 8.55356 2.46837 8.61956C2.45623 8.64468 2.44619 8.67077 2.43837 8.69756C2.43066 8.71741 2.42332 8.73742 2.41637 8.75755C2.31338 9.06654 2.24538 9.24253 2.21138 9.28753C2.13939 9.37752 1.99739 9.42752 1.7844 9.43452C1.66141 9.42952 1.57542 9.40452 1.52842 9.35852C1.47142 9.30453 1.44342 9.20553 1.44342 9.06154V5.99969L0.242483 5.49972V9.06154C0.242483 9.32253 0.290481 9.55751 0.385476 9.7645C0.456472 9.9225 0.553467 10.0605 0.675461 10.1775C0.798455 10.2955 0.941448 10.3885 1.10544 10.4575C1.30343 10.5415 1.52542 10.5875 1.77041 10.5935V10.5945H1.8064ZM4.55826 9.58051C4.59999 9.46783 4.61505 9.34701 4.60226 9.22753C4.59436 9.05812 4.537 8.89473 4.43727 8.75755C4.33727 8.62356 4.22028 8.55656 4.08729 8.55656C3.9073 8.55656 3.7573 8.65956 3.64031 8.86655C3.59831 8.93755 3.56031 9.02454 3.52632 9.12854C3.51195 9.16818 3.49861 9.20819 3.48632 9.24853L3.47132 9.30153L3.45632 9.34752C3.59831 9.46552 3.7793 9.56351 4.00029 9.64051C4.18028 9.70251 4.32528 9.7325 4.43327 9.7325C4.47727 9.7325 4.51927 9.68251 4.55826 9.58051Z" fill="#237D61"/>
</svg>
