<svg width="20" height="20" viewBox="0 0 20 20" fill="none" xmlns="http://www.w3.org/2000/svg">
<path d="M10.8566 1.6665C11.7941 1.669 12.27 1.674 12.6808 1.68567L12.8425 1.6915C13.0291 1.69817 13.2133 1.7065 13.4358 1.7165C14.3225 1.75817 14.9275 1.89817 15.4583 2.104C16.0083 2.31567 16.4716 2.60234 16.935 3.06484C17.3587 3.48142 17.6866 3.98533 17.8958 4.5415C18.1016 5.07234 18.2416 5.67734 18.2833 6.56484C18.2933 6.7865 18.3016 6.97067 18.3083 7.15817L18.3133 7.31984C18.3258 7.72984 18.3308 8.20567 18.3325 9.14317L18.3333 9.76484V10.8565C18.3353 11.4643 18.3289 12.0722 18.3141 12.6798L18.3091 12.8415C18.3025 13.029 18.2941 13.2132 18.2841 13.4348C18.2425 14.3223 18.1008 14.9265 17.8958 15.4582C17.6872 16.0147 17.3592 16.5187 16.935 16.9348C16.5183 17.3584 16.0144 17.6863 15.4583 17.8957C14.9275 18.1015 14.3225 18.2415 13.4358 18.2832C13.238 18.2925 13.0403 18.3008 12.8425 18.3082L12.6808 18.3132C12.27 18.3248 11.7941 18.3307 10.8566 18.3323L10.235 18.3332H9.14412C8.536 18.3353 7.92789 18.3289 7.31995 18.314L7.15829 18.309C6.96046 18.3015 6.76268 18.2929 6.56495 18.2832C5.67829 18.2415 5.07329 18.1015 4.54162 17.8957C3.98551 17.6868 3.4818 17.3589 3.06579 16.9348C2.64166 16.5184 2.31347 16.0145 2.10412 15.4582C1.89829 14.9273 1.75829 14.3223 1.71662 13.4348C1.70733 13.2371 1.699 13.0393 1.69162 12.8415L1.68745 12.6798C1.6721 12.0722 1.66515 11.4643 1.66662 10.8565V9.14317C1.66429 8.53534 1.6704 7.9275 1.68495 7.31984L1.69079 7.15817C1.69745 6.97067 1.70579 6.7865 1.71579 6.56484C1.75745 5.67734 1.89745 5.07317 2.10329 4.5415C2.31255 3.98476 2.64139 3.48069 3.06662 3.06484C3.48253 2.64107 3.98591 2.31316 4.54162 2.104C5.07329 1.89817 5.67745 1.75817 6.56495 1.7165C6.78662 1.7065 6.97162 1.69817 7.15829 1.6915L7.31995 1.6865C7.92761 1.6717 8.53545 1.66531 9.14329 1.66734L10.8566 1.6665ZM9.99995 5.83317C8.89488 5.83317 7.83508 6.27216 7.05367 7.05356C6.27227 7.83496 5.83329 8.89477 5.83329 9.99984C5.83329 11.1049 6.27227 12.1647 7.05367 12.9461C7.83508 13.7275 8.89488 14.1665 9.99995 14.1665C11.105 14.1665 12.1648 13.7275 12.9462 12.9461C13.7276 12.1647 14.1666 11.1049 14.1666 9.99984C14.1666 8.89477 13.7276 7.83496 12.9462 7.05356C12.1648 6.27216 11.105 5.83317 9.99995 5.83317ZM9.99995 7.49984C10.3283 7.49978 10.6534 7.56439 10.9567 7.68998C11.26 7.81557 11.5357 7.99967 11.7678 8.23178C12 8.46388 12.1842 8.73945 12.3099 9.04274C12.4356 9.34604 12.5003 9.67112 12.5004 9.99942C12.5004 10.3277 12.4358 10.6528 12.3102 10.9562C12.1846 11.2595 12.0005 11.5351 11.7684 11.7673C11.5363 11.9995 11.2608 12.1837 10.9575 12.3094C10.6542 12.4351 10.3291 12.4998 10.0008 12.4998C9.33774 12.4998 8.70186 12.2364 8.23302 11.7676C7.76418 11.2988 7.50079 10.6629 7.50079 9.99984C7.50079 9.3368 7.76418 8.70091 8.23302 8.23207C8.70186 7.76323 9.33774 7.49984 10.0008 7.49984M14.3758 4.58317C14.0995 4.58317 13.8346 4.69292 13.6392 4.88827C13.4439 5.08362 13.3341 5.34857 13.3341 5.62484C13.3341 5.9011 13.4439 6.16606 13.6392 6.36141C13.8346 6.55676 14.0995 6.6665 14.3758 6.6665C14.6521 6.6665 14.917 6.55676 15.1124 6.36141C15.3077 6.16606 15.4175 5.9011 15.4175 5.62484C15.4175 5.34857 15.3077 5.08362 15.1124 4.88827C14.917 4.69292 14.6521 4.58317 14.3758 4.58317Z" fill="white"/>
</svg>
