<svg width="20" height="20" viewBox="0 0 20 20" fill="none" xmlns="http://www.w3.org/2000/svg">
<path d="M15 10.8334H10.8333V15C10.8333 15.4584 10.4583 15.8334 10 15.8334C9.54167 15.8334 9.16667 15.4584 9.16667 15V10.8334H5.00001C4.54167 10.8334 4.16667 10.4584 4.16667 10C4.16667 9.54169 4.54167 9.16669 5.00001 9.16669H9.16667V5.00002C9.16667 4.54169 9.54167 4.16669 10 4.16669C10.4583 4.16669 10.8333 4.54169 10.8333 5.00002V9.16669H15C15.4583 9.16669 15.8333 9.54169 15.8333 10C15.8333 10.4584 15.4583 10.8334 15 10.8334Z" fill="white"/>
</svg>
