<svg width="56" height="56" viewBox="0 0 56 56" fill="none" xmlns="http://www.w3.org/2000/svg">
<g clip-path="url(#clip0_1_3186)">
<path d="M23.2273 31.3408C18.8404 31.3408 15.2728 34.9084 15.2728 39.2954C15.2728 43.6823 18.8404 47.2499 23.2273 47.2499C27.6143 47.2499 31.1819 43.6823 31.1819 39.2954C31.1819 34.9084 27.6143 31.3408 23.2273 31.3408ZM23.2273 45.659C19.7194 45.659 16.8637 42.8033 16.8637 39.2954C16.8637 35.7854 19.7194 32.9317 23.2273 32.9317C26.7353 32.9317 29.5909 35.7874 29.5909 39.2954C29.5909 42.8053 26.7353 45.659 23.2273 45.659Z" fill="#FED65C"/>
<path d="M25.8462 36.3484L21.7596 40.435L20.7056 38.856C20.461 38.4901 19.9679 38.3907 19.6039 38.6353C19.238 38.8799 19.1386 39.3731 19.3832 39.737L20.9741 42.1234C21.1053 42.3223 21.3201 42.4495 21.5587 42.4734C21.5846 42.4774 21.6104 42.4774 21.6383 42.4774C21.8491 42.4774 22.0519 42.3938 22.2011 42.2447L26.9738 37.472C27.284 37.1618 27.284 36.6566 26.9738 36.3464C26.6636 36.0362 26.1584 36.0362 25.8482 36.3464L25.8462 36.3484Z" fill="#FED65C"/>
<path d="M30.3864 21.7954H16.0682C15.6287 21.7954 15.2728 22.1514 15.2728 22.5909C15.2728 23.0304 15.6287 23.3863 16.0682 23.3863H30.3864C30.8259 23.3863 31.1819 23.0304 31.1819 22.5909C31.1819 22.1514 30.8259 21.7954 30.3864 21.7954Z" fill="white"/>
<path d="M27.2046 26.568C27.6441 26.568 28 26.212 28 25.7725C28 25.333 27.6441 24.9771 27.2046 24.9771H19.25C18.8106 24.9771 18.4546 25.333 18.4546 25.7725C18.4546 26.212 18.8106 26.568 19.25 26.568H27.2046Z" fill="white"/>
<path d="M45.2674 11.6871L38.9037 5.32349C38.7546 5.17434 38.5517 5.09082 38.3409 5.09082H16.0682C15.6287 5.09082 15.2728 5.44679 15.2728 5.88628V8.27264H12.8864C12.4469 8.27264 12.0909 8.62861 12.0909 9.06809V11.4545H9.70457C9.26509 11.4545 8.90912 11.8104 8.90912 12.2499V55.2045C8.90912 55.644 9.26509 55.9999 9.70457 55.9999H38.3409C38.7804 55.9999 39.1364 55.644 39.1364 55.2045V52.8181H41.5228C41.9622 52.8181 42.3182 52.4621 42.3182 52.0227V49.6363H44.7046C45.1441 49.6363 45.5 49.2803 45.5 48.8408V12.2499C45.5 12.0391 45.4165 11.8363 45.2674 11.6871ZM39.1364 7.80531L42.7836 11.4525H39.1364V7.80531ZM39.6037 14.6343H35.9565V10.9871L39.6037 14.6343ZM36.4219 17.8161H32.7747V14.1689L36.4219 17.8161ZM16.8636 6.68175H37.5455V10.3289L35.7219 8.50536C35.5728 8.35621 35.3699 8.27269 35.1591 8.27269H16.8634L16.8636 6.68175ZM13.6818 9.86356H34.3636V13.5107L32.5401 11.6872C32.3909 11.538 32.1881 11.4545 31.9773 11.4545H13.6816L13.6818 9.86356ZM37.5455 54.409H10.5V13.0454H31.1818V18.6138C31.1818 19.0533 31.5378 19.4093 31.9773 19.4093H37.5457L37.5455 54.409ZM40.7273 51.2272H39.1364V18.6138C39.1364 18.403 39.0529 18.2002 38.9037 18.051L37.0801 16.2275H40.7273L40.7273 51.2272ZM43.9091 48.0454H42.3182V15.432C42.3182 15.2212 42.2347 15.0184 42.0855 14.8692L40.262 13.0456H43.9091L43.9091 48.0454Z" fill="white"/>
</g>
<defs>
<clipPath id="clip0_1_3186">
<rect width="56" height="56" fill="white"/>
</clipPath>
</defs>
</svg>
