<svg width="56" height="42" viewBox="0 0 56 42" fill="none" xmlns="http://www.w3.org/2000/svg">
<g clip-path="url(#clip0_1_2678)">
<path d="M43.2569 12.3022C43.2431 15.4831 41.9716 18.2005 40.1906 20.7159C37.106 25.0812 33.007 28.3769 28.729 31.489C28.2746 31.8195 27.889 32.0031 27.3611 31.613C22.3211 27.8858 17.3959 24.0484 14.3251 18.4025C12.7047 15.4189 12.1952 12.2425 13.15 8.94675C14.9631 2.69953 22.1972 0.835926 26.8149 5.43986C27.71 6.33035 28.1552 6.56445 29.1192 5.47658C31.4188 2.86936 34.4667 2.45166 37.6293 3.37887C40.8149 4.31068 42.3526 6.82609 43.0182 9.91986C43.1834 10.6956 43.1834 11.5081 43.2569 12.3022Z" fill="#FED65C"/>
<path d="M8.27243 24.7848C7.55637 23.4812 6.80818 22.1822 6.73014 20.6445C6.69342 19.8963 6.65211 19.0747 7.40949 18.6432C8.18064 18.2071 8.97013 18.4596 9.67702 18.9232C10.8062 19.6576 11.6967 20.6399 12.3301 21.8012C14.8777 26.4465 18.3341 30.1003 23.2226 32.3816C25.559 33.4694 26.2292 35.6544 26.3439 38.0917C26.5 41.4517 26.5229 41.5389 23.1813 41.2085C13.4823 40.2583 6.30325 35.4386 2.27768 26.6025C-1.65609 17.9639 -0.618712 9.55926 4.74719 1.71008C4.93998 1.42549 5.14653 1.14549 5.37604 0.893032C5.75702 0.475327 6.138 -0.0663114 6.80817 0.291721C7.44161 0.631394 7.6344 1.26483 7.44161 1.91664C7.16161 2.84385 6.93211 3.83992 6.41342 4.63402C4.94457 6.88779 4.57735 9.39402 4.35702 11.9737C4.16424 14.2458 4.41211 16.5225 4.43047 18.7809C4.44883 21.2734 6.33998 23.2242 7.95113 25.1062C8.09801 25.2393 8.22653 25.1934 8.33211 25.0511C8.39637 24.9593 8.36883 24.8675 8.26785 24.7803L8.27243 24.7848Z" fill="#FDFDFD"/>
<path d="M48.8906 24.1157C50.566 21.9308 52.0807 19.8331 51.5988 16.698C51.3004 14.7334 51.764 12.6082 51.5988 10.5518C51.406 8.17408 50.4329 6.07178 49.3725 3.96031C48.8355 2.8908 47.7155 1.27047 49.2211 0.453421C50.7358 -0.372809 51.2132 1.57342 51.8053 2.49604C57.1161 10.8042 57.6807 19.5026 53.0125 28.1688C48.4407 36.6515 41.0093 40.8974 31.3516 41.3151C29.8414 41.3793 29.6578 40.8515 29.6211 39.5111C29.5293 35.7564 30.8329 33.0574 34.4362 31.4462C38.3424 29.702 40.9588 26.5072 43.0703 22.8856C43.9103 21.4442 44.8237 20.0672 46.2008 19.0665C46.9352 18.5295 47.7614 18.1898 48.606 18.6305C49.5194 19.1079 49.4781 20.0626 49.3083 20.9118C49.1155 21.8574 48.7758 22.7708 48.4958 23.698C48.3719 24.0239 48.4637 24.4324 48.1424 24.6482C48.1607 24.6252 48.1837 24.6482 48.1975 24.6344C48.4086 24.4049 48.6335 24.2397 48.8906 24.1203V24.1157Z" fill="#FDFDFD"/>
<path d="M5.59004 13.78C5.59004 11.081 5.88381 8.43246 7.04053 5.94918C7.29758 5.39836 7.51792 4.70066 8.32579 4.7741C9.02808 4.83836 9.37693 5.38918 9.66611 5.96754C10.2215 7.06918 10.1664 8.17541 9.62939 9.2541C8.58743 11.3518 7.64184 13.477 7.18283 15.7951C7.07266 16.3643 6.95332 17.2364 6.14087 17.1125C5.43857 17.0069 5.68644 16.1715 5.6084 15.6528C5.5166 15.0377 5.58546 14.3997 5.58546 13.7754L5.59004 13.78Z" fill="#F6F6F6"/>
<path d="M50.5659 14.1415C50.5063 14.8897 50.4833 15.5736 50.3869 16.2484C50.3364 16.6064 50.419 17.1389 49.8545 17.1664C49.3771 17.1848 49.1522 16.7625 49.0741 16.3815C48.5049 13.6825 47.3666 11.2084 46.2374 8.71134C45.9804 8.13757 46.0492 7.35266 46.1548 6.69167C46.2971 5.82872 46.7056 4.95659 47.6558 4.80512C48.7069 4.63528 48.8951 5.6497 49.1981 6.34282C50.2951 8.84905 50.4695 11.5205 50.5659 14.1415Z" fill="#F6F6F6"/>
</g>
<defs>
<clipPath id="clip0_1_2678">
<rect width="56" height="41.3115" fill="white"/>
</clipPath>
</defs>
</svg>
