<svg width="56" height="56" viewBox="0 0 56 56" fill="none" xmlns="http://www.w3.org/2000/svg">
<path d="M22.9011 33.2582C22.9011 36.0741 25.192 38.3573 28.0002 38.3573C30.8083 38.3573 33.0992 36.0664 33.0992 33.2582C33.0992 30.4501 30.8083 28.1592 28.0002 28.1592C25.192 28.1592 22.9011 30.4501 22.9011 33.2582ZM31.5078 33.2582C31.5078 35.1912 29.9328 36.7662 27.9999 36.7662C26.067 36.7662 24.4919 35.1911 24.4919 33.2582C24.4919 31.3253 26.067 29.7503 27.9999 29.7503C29.9328 29.7503 31.5078 31.3253 31.5078 33.2582Z" fill="white"/>
<path d="M23.339 44.7457C22.9094 44.6661 22.4878 44.9525 22.4083 45.3821L21.3344 51.0854C21.2549 51.5149 21.5413 51.9365 21.9708 52.0161C22.0185 52.024 22.0663 52.032 22.1219 52.032C22.4958 52.032 22.8299 51.7695 22.9015 51.3797L23.9753 45.6764C24.0549 45.2468 23.7685 44.8252 23.339 44.7457Z" fill="white"/>
<path d="M32.6617 44.7457C32.2321 44.8253 31.9458 45.2389 32.0253 45.6764L33.0992 51.3797C33.1708 51.7615 33.5049 52.032 33.8787 52.032C33.9264 52.032 33.9742 52.032 34.0299 52.0161C34.4594 51.9365 34.7457 51.5229 34.6662 51.0854L33.5923 45.382C33.5128 44.9525 33.0992 44.6662 32.6617 44.7457Z" fill="white"/>
<path d="M15.6943 29.1216C13.2443 29.1216 11.2557 31.1102 11.2557 33.5602C11.2557 36.0103 13.2443 37.9989 15.6943 37.9989C18.1444 37.9989 20.133 36.0103 20.133 33.5602C20.133 31.1102 18.1444 29.1216 15.6943 29.1216ZM15.6943 36.4077C14.1273 36.4077 12.8466 35.127 12.8466 33.5599C12.8466 31.9929 14.1273 30.7122 15.6943 30.7122C17.2614 30.7122 18.5421 31.9929 18.5421 33.5599C18.5421 35.127 17.2614 36.4077 15.6943 36.4077Z" fill="white"/>
<path d="M11.7808 44.0923C11.3513 44.0048 10.9297 44.2832 10.8422 44.7127L9.93539 49.1752C9.84789 49.6048 10.1263 50.0264 10.5559 50.1139C10.6116 50.1218 10.6593 50.1298 10.715 50.1298C11.0888 50.1298 11.415 49.8673 11.4945 49.4934L12.4013 45.0309C12.4888 44.6014 12.2104 44.1798 11.7808 44.0923Z" fill="white"/>
<path d="M40.3057 37.9989C42.7557 37.9989 44.7444 36.0103 44.7444 33.5602C44.7444 31.1102 42.7557 29.1216 40.3057 29.1216C37.8556 29.1216 35.867 31.1102 35.867 33.5602C35.867 36.0103 37.8556 37.9989 40.3057 37.9989ZM40.3057 30.7128C41.8727 30.7128 43.1534 31.9935 43.1534 33.5605C43.1534 35.1276 41.8728 36.4083 40.3057 36.4083C38.7386 36.4083 37.4579 35.1276 37.4579 33.5605C37.4579 31.9935 38.7386 30.7128 40.3057 30.7128Z" fill="white"/>
<path d="M48.1334 44.4423C47.7595 41.5787 45.2936 39.415 42.4061 39.415H38.2061C36.8777 39.415 35.6288 39.8605 34.6107 40.6719C33.4652 39.7651 32.0254 39.2241 30.4743 39.2241H25.5107C23.9595 39.2241 22.5198 39.765 21.3743 40.6719C20.3561 39.8605 19.1073 39.415 17.7868 39.415H13.5868C10.6993 39.415 8.24133 41.5787 7.86766 44.3946L6.93699 49.1832C6.85744 49.6127 7.13585 50.0343 7.56541 50.1138C7.61314 50.1218 7.66882 50.1297 7.71655 50.1297C8.09041 50.1297 8.42449 49.8672 8.49607 49.4854L9.42674 44.6491C9.69719 42.5729 11.487 41.0059 13.579 41.0059H17.779C18.6778 41.0059 19.521 41.2923 20.229 41.8093C19.521 42.7161 19.0358 43.8059 18.8847 45.007L17.787 51.0845C17.7074 51.5141 17.9938 51.9277 18.4313 52.0073C18.479 52.0152 18.5267 52.0232 18.5745 52.0232C18.9563 52.0232 19.2903 51.7527 19.354 51.3709L20.4517 45.2537C20.7778 42.7241 22.9494 40.823 25.4948 40.823H30.4585C33.0039 40.823 35.1755 42.7242 35.5096 45.2935L36.6073 51.371C36.6869 51.8005 37.1005 52.0869 37.5301 52.0153C37.9596 51.9357 38.2539 51.5221 38.1744 51.0926L37.0846 45.0552C36.9255 43.8382 36.4403 42.7405 35.7324 41.8257C36.4403 41.3086 37.2914 41.0143 38.1903 41.0143H42.3903C44.4824 41.0143 46.2642 42.5813 46.5505 44.7052L47.4812 49.4938C47.5528 49.8756 47.8869 50.1381 48.2607 50.1381C48.3085 50.1381 48.3641 50.1381 48.4119 50.1222C48.8414 50.0427 49.1277 49.6211 49.0403 49.1915L48.1176 44.4506L48.1334 44.4423Z" fill="white"/>
<path d="M45.1582 44.7127C45.0707 44.2832 44.657 44.0048 44.2195 44.0922C43.7899 44.1797 43.5116 44.6013 43.599 45.0309L44.5058 49.4934C44.5854 49.8673 44.9115 50.1298 45.2853 50.1298C45.341 50.1298 45.3887 50.1298 45.4444 50.1138C45.874 50.0263 46.1524 49.6048 46.0649 49.1752L45.1582 44.7127Z" fill="white"/>
<path d="M21.7082 17.4205L27.4354 23.1478C27.5945 23.3069 27.7934 23.3785 28.0002 23.3785C28.2071 23.3785 28.4059 23.2989 28.565 23.1478L34.3081 17.4047C34.3319 17.3888 34.3399 17.365 34.3558 17.3411H34.3637C35.2467 16.4343 35.724 15.2331 35.724 13.9604C35.724 12.6877 35.2149 11.4229 34.2922 10.5002C32.5899 8.79788 29.9092 8.63085 28.0003 9.99109C27.173 9.40248 26.1946 9.06836 25.1605 9.06836C23.8481 9.06836 22.623 9.57745 21.7003 10.5002C19.831 12.3695 19.7912 15.4399 21.6287 17.349C21.6446 17.3649 21.6764 17.4047 21.7003 17.4206L21.7082 17.4205ZM22.8297 11.6296C23.4502 11.0091 24.2775 10.6592 25.1604 10.6592C26.0433 10.6592 26.8308 10.9853 27.4434 11.574C27.4434 11.574 27.4593 11.5819 27.4672 11.5899L27.5627 11.6614C27.5945 11.6853 27.6263 11.7012 27.6582 11.7251C27.6661 11.7251 27.6741 11.733 27.682 11.741C27.7059 11.7489 27.7377 11.7569 27.7695 11.7649C27.8093 11.7728 27.8411 11.7887 27.8809 11.7967H27.9922H28.1036C28.1434 11.7967 28.1832 11.7808 28.215 11.7649C28.2388 11.7569 28.2707 11.7569 28.2945 11.741C28.3025 11.741 28.3104 11.733 28.3184 11.7251C28.3502 11.7092 28.382 11.6853 28.4138 11.6694C28.4457 11.6455 28.4854 11.6296 28.5172 11.5978C28.5172 11.5978 28.5331 11.5899 28.5411 11.5819C29.8297 10.3489 31.8979 10.3649 33.1627 11.6296C33.7832 12.2501 34.1252 13.0774 34.1252 13.9603C34.1252 14.8432 33.799 15.6307 33.2581 16.1955C33.2263 16.2273 33.1945 16.2512 33.1627 16.291L27.9924 21.4613L22.766 16.235C21.5331 14.9464 21.5569 12.8781 22.8217 11.6213L22.8297 11.6296Z" fill="#FED65C"/>
<path d="M12.1308 24.2061L13.8012 25.8765C13.9523 26.0276 14.1512 26.1072 14.366 26.1072C14.5808 26.1072 14.7796 26.0197 14.9308 25.8765L16.6012 24.2061L18.2955 22.5038C18.2955 22.5038 18.3353 22.4719 18.3512 22.4481C18.9319 21.8515 19.25 21.056 19.25 20.2208C19.25 19.3856 18.9159 18.5504 18.3114 17.9538C17.2534 16.8878 15.6068 16.7367 14.3659 17.4924C13.8648 17.1822 13.292 17.0151 12.6875 17.0151C11.8284 17.0151 11.0171 17.3492 10.4205 17.9538C9.1875 19.1788 9.17162 21.1993 10.4205 22.4959L12.1308 24.2061ZM11.5501 19.0754C12.1467 18.4709 13.2046 18.463 13.8171 19.0516C13.8171 19.0516 13.833 19.0595 13.841 19.0675L13.9365 19.1391C13.9683 19.1629 14.0001 19.1868 14.0319 19.2027C14.0399 19.2027 14.0478 19.2107 14.0558 19.2186C14.0796 19.2266 14.1115 19.2345 14.1353 19.2425C14.1751 19.2504 14.2069 19.2663 14.2467 19.2743H14.366H14.4774C14.5171 19.2743 14.5569 19.2584 14.5967 19.2425C14.6205 19.2345 14.6524 19.2345 14.6762 19.2186C14.6842 19.2186 14.6921 19.2107 14.7001 19.2027C14.7319 19.1868 14.7637 19.1629 14.7955 19.1391C14.8274 19.1152 14.8671 19.0993 14.891 19.0675C14.891 19.0675 14.9069 19.0595 14.9149 19.0516C15.5433 18.447 16.5615 18.455 17.1819 19.0754C17.4842 19.3777 17.6592 19.7834 17.6592 20.2209C17.6592 20.6584 17.5001 21.0402 17.2058 21.3425C17.1978 21.3504 17.1819 21.3584 17.1819 21.3663L14.358 24.1902L11.5103 21.3425C10.9057 20.714 10.9217 19.6959 11.5421 19.0834L11.5501 19.0754Z" fill="#FED65C"/>
<path d="M39.3999 24.2061L41.0703 25.8765C41.2215 26.0277 41.4203 26.1072 41.6351 26.1072C41.8499 26.1072 42.0488 26.0197 42.1999 25.8765L45.6283 22.4481C46.8295 21.1993 46.8135 19.1788 45.5806 17.9538C44.9761 17.3493 44.1647 17.0151 43.3056 17.0151C42.701 17.0151 42.1283 17.1901 41.6272 17.4924C40.3942 16.7447 38.7476 16.8879 37.6896 17.9538C37.0851 18.5583 36.743 19.3617 36.743 20.2288C36.743 21.0959 37.0612 21.8515 37.6817 22.4958L39.3919 24.2061L39.3999 24.2061ZM38.8192 19.0755C39.4397 18.455 40.4579 18.4471 41.0863 19.0516C41.0863 19.0516 41.1022 19.0596 41.1101 19.0675C41.142 19.0914 41.1738 19.1153 41.2056 19.1312C41.2374 19.155 41.2692 19.1789 41.309 19.1948C41.317 19.1948 41.3249 19.2028 41.3329 19.2107C41.3567 19.2187 41.3885 19.2266 41.4124 19.2346C41.4522 19.2425 41.492 19.2584 41.5317 19.2664H41.6511H41.7624C41.8022 19.2664 41.842 19.2505 41.8817 19.2346C41.9056 19.2266 41.9374 19.2266 41.9613 19.2107C41.9692 19.2107 41.9772 19.2028 41.9851 19.1948C42.017 19.1789 42.0488 19.155 42.0806 19.1391C42.1124 19.1152 42.1522 19.0993 42.1761 19.0675C42.1761 19.0675 42.192 19.0596 42.1999 19.0516C42.8124 18.463 43.8624 18.4709 44.4669 19.0755C45.0874 19.696 45.0954 20.7141 44.5385 21.2948C44.5226 21.3028 44.4749 21.3505 44.4669 21.3664L41.6511 24.1823L38.8033 21.3345C38.5169 21.0323 38.3579 20.6425 38.3579 20.2209C38.3579 19.7993 38.5249 19.3777 38.8351 19.0754L38.8192 19.0755Z" fill="#FED65C"/>
</svg>
