<svg width="28" height="28" viewBox="0 0 28 28" fill="none" xmlns="http://www.w3.org/2000/svg">
<path d="M21 15.1668H15.1667V21.0001C15.1667 21.6418 14.6417 22.1668 14 22.1668C13.3583 22.1668 12.8333 21.6418 12.8333 21.0001V15.1668H7C6.35834 15.1668 5.83334 14.6418 5.83334 14.0001C5.83334 13.3585 6.35834 12.8335 7 12.8335H12.8333V7.00016C12.8333 6.35849 13.3583 5.83349 14 5.83349C14.6417 5.83349 15.1667 6.35849 15.1667 7.00016V12.8335H21C21.6417 12.8335 22.1667 13.3585 22.1667 14.0001C22.1667 14.6418 21.6417 15.1668 21 15.1668Z" fill="#FED65C"/>
</svg>
