<svg width="64" height="64" viewBox="0 0 64 64" fill="none" xmlns="http://www.w3.org/2000/svg">
<path fill-rule="evenodd" clip-rule="evenodd" d="M45.9456 38.1367L53.6862 30.4876C53.8854 29.7588 53.9101 28.9932 53.7583 28.253C53.6972 27.9662 53.5284 27.7138 53.2867 27.5477C52.9963 27.3983 52.6641 27.3509 52.3435 27.4129C51.3612 27.6074 50.4386 28.031 49.6508 28.6492L34.9328 41.1729C34.0526 41.8606 33.3822 42.7807 32.9974 43.8293C32.8225 44.3752 32.7369 44.9457 32.744 45.5189V45.5256C32.7476 45.9444 32.7802 46.3624 32.8417 46.7766L34.2639 56.7526H45.3992L44.677 52.6269C44.5884 51.7065 44.737 50.7788 45.1088 49.9322C45.4095 49.0814 45.9437 48.3324 46.6502 47.771L51.4731 44.5609C51.9608 44.2458 52.3744 43.8289 52.6858 43.3388L58.5266 34.358C58.6721 34.1372 58.7966 33.9033 58.8985 33.6593C58.9985 33.4141 59.0749 33.1598 59.1269 32.9001L62.1584 18.3095C62.3362 17.6865 62.3865 17.034 62.3064 16.3912C62.2263 15.7483 62.0174 15.1281 61.6923 14.5678C61.5239 14.316 61.2929 14.1124 61.0219 13.977C60.8192 13.8787 60.5897 13.8503 60.3691 13.8961C60.1163 13.9788 59.8838 14.1142 59.6872 14.2934C59.4906 14.4726 59.3343 14.6915 59.2286 14.9356L55.0902 31.0118C55.0611 31.1577 54.9888 31.2915 54.8827 31.3958L46.9911 39.1964L45.9456 38.1367ZM23.078 7.24756C22.3986 7.24987 21.7477 7.52084 21.2673 8.00134C20.7869 8.48184 20.5161 9.13284 20.514 9.81227V11.3853C20.5249 12.0582 20.7999 12.6999 21.2796 13.1719C21.7593 13.6439 22.4054 13.9085 23.0784 13.9085C23.7514 13.9085 24.3974 13.6439 24.8771 13.1719C25.3569 12.6999 25.6318 12.0582 25.6427 11.3853V9.81227C25.6401 9.13289 25.369 8.48209 24.8886 8.00169C24.4082 7.52128 23.7574 7.25022 23.078 7.24756ZM40.9226 7.24756C41.602 7.25004 42.2529 7.52105 42.7334 8.00149C43.2138 8.48193 43.4848 9.13283 43.4873 9.81227V11.3853C43.4764 12.0582 43.2014 12.6999 42.7217 13.1719C42.242 13.6439 41.5959 13.9085 40.9229 13.9085C40.2499 13.9085 39.6039 13.6439 39.1241 13.1719C38.6444 12.6999 38.3694 12.0582 38.3585 11.3853V9.81227C38.3607 9.13284 38.6315 8.48184 39.1118 8.00134C39.5922 7.52084 40.2431 7.24987 40.9226 7.24756ZM32.0003 9.82507C32.6796 9.82756 33.3304 10.0985 33.8108 10.5788C34.2913 11.0591 34.5624 11.7098 34.565 12.3891V13.9615C34.5541 14.6344 34.2791 15.2761 33.7994 15.7481C33.3197 16.2201 32.6736 16.4846 32.0006 16.4846C31.3276 16.4846 30.6816 16.2201 30.2019 15.7481C29.7221 15.2761 29.4472 14.6344 29.4363 13.9615V12.3891C29.4389 11.7099 29.7099 11.0593 30.1902 10.579C30.6705 10.0987 31.3211 9.82773 32.0003 9.82507ZM36.134 17.7516C36.6312 17.1306 37.243 16.6108 37.9361 16.2204C38.869 15.7017 39.9211 15.4355 40.9883 15.4478C42.0556 15.4602 43.1012 15.7508 44.0218 16.2909C44.9424 16.831 45.7062 17.6019 46.2377 18.5275C46.7692 19.4531 47.05 20.5014 47.0524 21.5687V22.0538H39.3273C38.8138 20.2829 37.6804 18.7559 36.134 17.7516ZM24.6733 22.0538C25.1868 20.2829 26.3202 18.7559 27.8666 17.7516C27.3695 17.1305 26.7577 16.6106 26.0645 16.2204C25.1316 15.7017 24.0796 15.4354 23.0124 15.4477C21.9451 15.4601 20.8996 15.7507 19.979 16.2908C19.0584 16.8309 18.2947 17.6019 17.7633 18.5275C17.2319 19.4532 16.9511 20.5014 16.9488 21.5687V22.0538H24.6733ZM25.8698 24.6313V24.1456C25.8744 22.5211 26.5218 20.9644 27.6705 19.8157C28.8192 18.6671 30.3758 18.0197 32.0003 18.0151C33.6247 18.02 35.1811 18.6675 36.3297 19.8161C37.4784 20.9648 38.1259 22.5212 38.1308 24.1456V24.6313H25.8698ZM17.0095 39.1964L18.055 38.1367L10.3144 30.4876C10.1152 29.7588 10.0905 28.9932 10.2423 28.253C10.3034 27.9662 10.4722 27.7138 10.7139 27.5477C11.0043 27.3983 11.3365 27.3509 11.6571 27.4129C12.6393 27.6078 13.5618 28.0313 14.3498 28.6492L29.0644 41.1729C29.945 41.8604 30.6156 42.7805 31.0006 43.8293C31.1751 44.3734 31.2606 44.9421 31.2539 45.5135V45.5243C31.2507 45.9426 31.218 46.3602 31.1562 46.774L29.7367 56.7526H18.6014L19.3236 52.6269C19.4122 51.7065 19.2636 50.7788 18.8918 49.9322C18.5911 49.0814 18.0569 48.3324 17.3504 47.771L12.5308 44.5582C12.0436 44.2426 11.6301 43.8258 11.3182 43.3361L5.47466 34.358C5.17993 33.9165 4.97568 33.421 4.87373 32.9001L1.84215 18.3095C1.66443 17.6865 1.61411 17.034 1.69421 16.3912C1.77431 15.7483 1.98318 15.1281 2.30834 14.5678C2.47669 14.316 2.70771 14.1124 2.97866 13.977C3.18137 13.8787 3.4109 13.8503 3.63146 13.8961C3.88432 13.9788 4.11675 14.1142 4.31337 14.2934C4.50999 14.4726 4.66632 14.6915 4.772 14.9356L8.91179 31.0172C8.94052 31.1632 9.01287 31.2971 9.11929 31.4012L17.0095 39.1964Z" fill="#237D61"/>
</svg>
