<svg width="48" height="36" viewBox="0 0 48 36" fill="none" xmlns="http://www.w3.org/2000/svg">
<path d="M34.8593 20.4669L22.416 27.6707L16.8975 25.7447L18.2625 24.5664H23.25C24.9045 24.5664 26.25 23.2209 26.25 21.5664C26.25 19.9119 24.9045 18.5664 23.25 18.5664H18.1215L15.987 17.8554C15.9098 17.8299 15.8303 17.8164 15.75 17.8164H6V17.2382C6 16.8234 5.66475 16.3164 5.25 16.3164H0V17.8164H4.5V18.7382V32.2382V32.8164H0V34.3164H5.25C5.66475 34.3164 6 34.1529 6 33.7382V33.1299L21.135 35.7617C21.345 35.7984 21.5573 35.8157 21.7703 35.8157C22.548 35.8157 23.3205 35.5734 23.9633 35.1144L37.8255 25.0209C38.4188 24.5889 38.8065 23.9507 38.9145 23.2239C39.024 22.4979 38.841 21.7742 38.4 21.1877C37.575 20.0874 36.0525 19.7754 34.8593 20.4669ZM37.431 23.0034C37.3823 23.3297 37.2083 23.6154 36.942 23.8097L23.085 33.8994C22.599 34.2474 21.9833 34.3877 21.3915 34.2849L6 31.6089V19.3172H15.6285L17.763 20.0282C17.8403 20.0537 17.9198 20.0672 18 20.0672H23.25C24.0773 20.0672 24.75 20.7399 24.75 21.5672C24.75 22.3944 24.0773 23.0672 23.25 23.0672H18C17.829 23.0672 17.6648 23.1249 17.5313 23.2314L15.8618 24.5672H12V26.0672H13.3785L22.263 29.1144C22.4663 29.1827 22.689 29.2029 22.8758 29.0949L35.6108 21.7434C36.1463 21.4352 36.8288 21.5837 37.2 22.0794C37.398 22.3427 37.4805 22.6779 37.431 23.0034Z" fill="white"/>
<path d="M46.4137 1.51481C44.3205 -0.504937 40.9148 -0.503437 38.8215 1.51481L38.25 2.06531L37.6785 1.51481C35.5852 -0.504937 32.1795 -0.504937 30.0863 1.51481C29.0633 2.50106 28.5 3.81431 28.5 5.21456C28.5 6.61331 29.0633 7.92656 30.0863 8.91356L37.7288 16.2861C37.8735 16.4263 38.0618 16.4961 38.2493 16.4961C38.4368 16.4961 38.625 16.4256 38.7698 16.2861L46.4123 8.91356C47.4368 7.92656 48 6.61331 48 5.21456C48 3.81431 47.4367 2.50106 46.4137 1.51481ZM45.372 7.83356L38.25 14.7036L31.128 7.83356C30.4005 7.13156 30 6.20156 30 5.21456C30 4.22681 30.4005 3.29606 31.128 2.59481C31.8878 1.86206 32.8852 1.49531 33.8827 1.49531C34.8802 1.49531 35.8777 1.86206 36.6375 2.59481L37.7295 3.64781C38.0197 3.92756 38.481 3.92756 38.7712 3.64781L39.8633 2.59481C41.382 1.13006 43.8533 1.13006 45.3728 2.59481C46.0995 3.29606 46.5 4.22606 46.5 5.21456C46.5 6.20156 46.0995 7.13156 45.372 7.83356Z" fill="#FED65C"/>
<path d="M26.4851 14.5938C25.2476 14.4498 23.9696 14.3013 22.6751 14.5038C21.5163 14.686 20.2083 15.3475 20.0118 16.657L21.4961 16.8798C21.5666 16.4073 22.2776 16.0848 22.9076 15.9865C24.0003 15.814 25.1223 15.946 26.3118 16.084C27.5246 16.225 28.7771 16.3705 30.0461 16.186C30.9903 16.048 31.6391 15.676 31.9758 15.0798L30.6708 14.3418C30.5763 14.509 30.2778 14.6365 29.8301 14.7018C28.7531 14.857 27.6521 14.7295 26.4851 14.5938Z" fill="#FED65C"/>
<path d="M18.9809 10.5476C20.1794 10.5836 21.3464 10.9181 22.5831 11.2728C23.1434 11.4333 23.7029 11.5938 24.2676 11.7266C26.7644 12.3153 28.7781 12.0993 30.2534 11.0853L29.4036 9.84935C28.2906 10.6151 26.6789 10.7553 24.6111 10.2671C24.0696 10.1396 23.5326 9.9851 22.9964 9.83135C21.7259 9.4676 20.4119 9.09035 19.0259 9.04835C16.5051 8.9861 13.9979 10.1148 12.5099 12.0288L13.6949 12.9491C14.8941 11.4056 16.9244 10.4771 18.9809 10.5476Z" fill="#FED65C"/>
</svg>
