<svg width="48" height="48" viewBox="0 0 48 48" fill="none" xmlns="http://www.w3.org/2000/svg">
<path d="M46.7997 23.7151V16.5061C46.7997 13.6354 44.4641 11.2999 41.5935 11.2999H37.8992L35.1359 6.77962C34.9902 6.54135 34.7559 6.37073 34.4844 6.30528C34.2132 6.23986 33.9266 6.2848 33.6883 6.43049L31.8013 7.58394L30.2793 5.09379C30.1337 4.85552 29.8994 4.6849 29.6279 4.61936C29.3567 4.55408 29.0702 4.59891 28.8318 4.74454L18.1072 11.2999H15.057C12.1863 11.2999 9.85079 13.6354 9.85079 16.5061V17.7101C4.99372 18.2367 1.20001 22.3608 1.20001 27.3556C1.20001 32.3503 4.99372 36.4744 9.85079 37.001V38.2049C9.85079 41.0757 12.1863 43.4111 15.057 43.4111H41.5935C44.4641 43.4111 46.7997 41.0757 46.7997 38.2049V30.996C46.7997 30.9937 46.8 30.9915 46.8 30.9892V23.7219C46.8 23.7196 46.7997 23.7173 46.7997 23.7151ZM31.9988 9.93144C31.9996 9.93094 32.0004 9.93056 32.0013 9.93006C32.0021 9.92953 32.0028 9.92895 32.0037 9.92842L33.8884 8.77641L35.431 11.2999H29.7599L31.9988 9.93144ZM29.0316 7.09052L30.0046 8.68222L25.7221 11.2999H22.1452L29.0316 7.09052ZM10.9036 34.9532C6.71424 34.9532 3.3059 31.5449 3.3059 27.3556C3.3059 23.1662 6.71424 19.7578 10.9036 19.7578C15.093 19.7578 18.5013 23.1662 18.5013 27.3556C18.5013 31.5449 15.093 34.9532 10.9036 34.9532ZM44.6938 29.9363H38.3764C36.9534 29.9363 35.7957 28.7786 35.7957 27.3556C35.7957 25.9325 36.9534 24.7748 38.3764 24.7748H44.6938V29.9363ZM44.6938 22.6689H38.3764C35.7921 22.6689 33.6898 24.7713 33.6898 27.3556C33.6898 29.9398 35.7921 32.0421 38.3764 32.0421H44.6938V38.2049C44.6938 39.9145 43.303 41.3053 41.5935 41.3053H15.057C13.3474 41.3053 11.9567 39.9145 11.9567 38.2049V37.001C16.8137 36.4743 20.6072 32.3502 20.6072 27.3556C20.6072 22.3609 16.8137 18.2368 11.9567 17.7101V16.5061C11.9567 14.7966 13.3474 13.4058 15.057 13.4058H18.4019C18.4028 13.4058 18.4038 13.406 18.4047 13.406C18.4055 13.406 18.4064 13.4058 18.4072 13.4058H37.3071C37.308 13.4058 37.3089 13.406 37.3098 13.406C37.3107 13.406 37.3115 13.4058 37.3124 13.4058H41.5935C43.303 13.4058 44.6938 14.7966 44.6938 16.5061V22.6689Z" fill="white"/>
<path d="M37.4475 27.3538C37.4475 27.9449 37.9266 28.424 38.5176 28.424C39.1087 28.424 39.5878 27.9449 39.5878 27.3538C39.5878 26.7628 39.1087 26.2837 38.5176 26.2837C37.9266 26.2837 37.4475 26.7628 37.4475 27.3538Z" fill="#FED65C"/>
<path d="M15.2602 26.3014H11.9568V22.998C11.9568 22.4165 11.4855 21.9451 10.9039 21.9451C10.3224 21.9451 9.85099 22.4165 9.85099 22.998V26.3014H6.54762C5.96611 26.3014 5.49469 26.7728 5.49469 27.3543C5.49469 27.9358 5.96611 28.4073 6.54762 28.4073H9.85099V31.7106C9.85099 32.2921 10.3224 32.7635 10.9039 32.7635C11.4855 32.7635 11.9568 32.2921 11.9568 31.7106V28.4073H15.2602C15.8418 28.4073 16.3131 27.9358 16.3131 27.3543C16.3131 26.7728 15.8418 26.3014 15.2602 26.3014Z" fill="#FED65C"/>
</svg>
