<svg width="56" height="56" viewBox="0 0 56 56" fill="none" xmlns="http://www.w3.org/2000/svg">
<path d="M21.5939 39.8827H42.7395C42.8881 39.8827 43.0305 39.8237 43.1355 39.7187C43.2405 39.6137 43.2995 39.4712 43.2995 39.3227C43.2995 39.1742 43.2405 39.0317 43.1355 38.9267C43.0305 38.8217 42.8881 38.7627 42.7395 38.7627H21.5939C21.4454 38.7627 21.303 38.8217 21.198 38.9267C21.0929 39.0317 21.0339 39.1742 21.0339 39.3227C21.0339 39.4712 21.0929 39.6137 21.198 39.7187C21.303 39.8237 21.4454 39.8827 21.5939 39.8827Z" fill="white"/>
<path d="M21.5939 20.9955H23.4475C23.5961 20.9955 23.7385 20.9365 23.8435 20.8315C23.9485 20.7264 24.0075 20.584 24.0075 20.4355C24.0075 20.287 23.9485 20.1445 23.8435 20.0395C23.7385 19.9345 23.5961 19.8755 23.4475 19.8755H21.5939C21.4454 19.8755 21.303 19.9345 21.198 20.0395C21.0929 20.1445 21.0339 20.287 21.0339 20.4355C21.0339 20.584 21.0929 20.7264 21.198 20.8315C21.303 20.9365 21.4454 20.9955 21.5939 20.9955Z" fill="white"/>
<path d="M21.5939 25.7206H23.4475C23.5961 25.7206 23.7385 25.6616 23.8435 25.5566C23.9485 25.4515 24.0075 25.3091 24.0075 25.1606C24.0075 25.0121 23.9485 24.8696 23.8435 24.7646C23.7385 24.6596 23.5961 24.6006 23.4475 24.6006H21.5939C21.4454 24.6006 21.303 24.6596 21.198 24.7646C21.0929 24.8696 21.0339 25.0121 21.0339 25.1606C21.0339 25.3091 21.0929 25.4515 21.198 25.5566C21.303 25.6616 21.4454 25.7206 21.5939 25.7206Z" fill="white"/>
<path d="M21.5939 30.4413H23.4475C23.5961 30.4413 23.7385 30.3823 23.8435 30.2773C23.9485 30.1722 24.0075 30.0298 24.0075 29.8813C24.0075 29.7328 23.9485 29.5903 23.8435 29.4853C23.7385 29.3803 23.5961 29.3213 23.4475 29.3213H21.5939C21.4454 29.3213 21.303 29.3803 21.198 29.4853C21.0929 29.5903 21.0339 29.7328 21.0339 29.8813C21.0339 30.0298 21.0929 30.1722 21.198 30.2773C21.303 30.3823 21.4454 30.4413 21.5939 30.4413Z" fill="white"/>
<path d="M21.5939 35.162H23.4475C23.5961 35.162 23.7385 35.103 23.8435 34.998C23.9485 34.893 24.0075 34.7505 24.0075 34.602C24.0075 34.4535 23.9485 34.311 23.8435 34.206C23.7385 34.101 23.5961 34.042 23.4475 34.042H21.5939C21.4454 34.042 21.303 34.101 21.198 34.206C21.0929 34.311 21.0339 34.4535 21.0339 34.602C21.0339 34.7505 21.0929 34.893 21.198 34.998C21.303 35.103 21.4454 35.162 21.5939 35.162Z" fill="white"/>
<path d="M42.2182 23.9578L34.563 18.6546C34.4415 18.5696 34.2968 18.5239 34.1486 18.5239C34.0003 18.5239 33.8556 18.5696 33.7342 18.6546L26.079 23.9578C25.9511 24.046 25.8548 24.1728 25.8042 24.3197C25.7535 24.4665 25.7512 24.6257 25.7975 24.774C25.8438 24.9223 25.9363 25.0518 26.0615 25.1438C26.1867 25.2357 26.338 25.2852 26.4934 25.285H27.1934V34.105C27.1948 34.3862 27.3076 34.6554 27.507 34.8538C27.7063 35.0521 27.9761 35.1634 28.2574 35.1634H40.0174C40.2981 35.1634 40.5673 35.0519 40.7658 34.8534C40.9642 34.6549 41.0758 34.3857 41.0758 34.105V25.285H41.7814C41.9367 25.2852 42.088 25.2357 42.2132 25.1438C42.3384 25.0518 42.4309 24.9223 42.4772 24.774C42.5235 24.6257 42.5212 24.4665 42.4705 24.3197C42.4199 24.1728 42.3236 24.046 42.1958 23.9578H42.2182ZM35.4982 34.0378H32.771V29.2778H35.5206L35.4982 34.0378ZM39.9502 34.0378H36.6462V29.1826C36.6447 28.9088 36.5349 28.6467 36.3407 28.4537C36.1466 28.2606 35.8839 28.1522 35.6102 28.1522H32.6814C32.4076 28.1522 32.1449 28.2606 31.9508 28.4537C31.7566 28.6467 31.6468 28.9088 31.6454 29.1826V34.0378H28.319V25.285H39.9726L39.9502 34.0378ZM27.7646 24.1594L34.1598 19.7354L40.5382 24.1594H27.7646Z" fill="#FED65C"/>
<path d="M46.9895 18.2443C47.138 18.2443 47.2805 18.1853 47.3855 18.0803C47.4905 17.9753 47.5495 17.8329 47.5495 17.6843V15.6235C47.548 15.0849 47.3334 14.5687 46.9525 14.1878C46.5716 13.8069 46.0554 13.5922 45.5167 13.5907H18.0151C18.0817 12.9659 18.016 12.3341 17.8225 11.7363C17.629 11.1385 17.3118 10.5881 16.8917 10.1209C16.4716 9.6536 15.9579 9.27996 15.3839 9.02418C14.81 8.76841 14.1887 8.63623 13.5603 8.63623C12.932 8.63623 12.3107 8.76841 11.7367 9.02418C11.1628 9.27996 10.6491 9.6536 10.2289 10.1209C9.80882 10.5881 9.49169 11.1385 9.29814 11.7363C9.1046 12.3341 9.03897 12.9659 9.10552 13.5907V31.1803C9.10552 31.3289 9.16452 31.4713 9.26954 31.5763C9.37456 31.6813 9.517 31.7403 9.66552 31.7403C9.81404 31.7403 9.95648 31.6813 10.0615 31.5763C10.1665 31.4713 10.2255 31.3289 10.2255 31.1803V13.5683C10.2071 13.1197 10.2796 12.6719 10.4386 12.2519C10.5976 11.8319 10.8399 11.4485 11.1508 11.1245C11.4618 10.8005 11.835 10.5427 12.2481 10.3666C12.6612 10.1905 13.1057 10.0998 13.5547 10.0998C14.0038 10.0998 14.4482 10.1905 14.8613 10.3666C15.2744 10.5427 15.6476 10.8005 15.9586 11.1245C16.2696 11.4485 16.5118 11.8319 16.6708 12.2519C16.8298 12.6719 16.9023 13.1197 16.8839 13.5683V37.6987C16.8055 37.6091 16.7271 37.5251 16.6431 37.4411C15.8796 36.7032 14.8754 36.2657 13.8151 36.2091H13.2551H13.1151H13.0199H12.8911H12.7903H12.6783H12.5607H12.4823C11.616 36.4308 10.8359 36.9067 10.2423 37.5755V33.4651C10.2423 33.3166 10.1833 33.1742 10.0783 33.0692C9.97328 32.9641 9.83084 32.9051 9.68232 32.9051C9.5338 32.9051 9.39136 32.9641 9.28634 33.0692C9.18132 33.1742 9.12232 33.3166 9.12232 33.4651V40.6835C9.13119 41.8659 9.6071 42.9968 10.4463 43.8297C11.2855 44.6626 12.42 45.13 13.6023 45.1299H45.5167C46.0516 45.1285 46.5644 44.917 46.9447 44.5409C47.3249 44.1648 47.5422 43.6543 47.5495 43.1195V20.0251C47.5495 19.8766 47.4905 19.7342 47.3855 19.6292C47.2805 19.5241 47.138 19.4651 46.9895 19.4651C46.841 19.4651 46.6986 19.5241 46.5935 19.6292C46.4885 19.7342 46.4295 19.8766 46.4295 20.0251V43.1195C46.4295 43.3601 46.3339 43.5909 46.1638 43.761C45.9937 43.9312 45.7629 44.0267 45.5223 44.0267H13.5631C13.1177 44.0269 12.6767 43.9377 12.2664 43.7642C11.8562 43.5908 11.4849 43.3367 11.1746 43.0171C10.8644 42.6975 10.6215 42.3188 10.4604 41.9035C10.2993 41.4882 10.2232 41.0448 10.2367 40.5995V40.5435C10.2339 40.51 10.2339 40.4763 10.2367 40.4427C10.234 40.4204 10.234 40.3979 10.2367 40.3755C10.234 40.3439 10.234 40.312 10.2367 40.2803C10.2367 40.2803 10.2367 40.2355 10.2367 40.2131V40.1179C10.2367 40.1179 10.2367 40.0787 10.2367 40.0563C10.2341 40.0228 10.2341 39.9891 10.2367 39.9555C10.2341 39.9388 10.2341 39.9218 10.2367 39.9051C10.2335 39.8679 10.2335 39.8304 10.2367 39.7931V39.7539C10.2367 39.7147 10.2367 39.6755 10.2759 39.6307C10.4331 39.1722 10.6877 38.7531 11.0222 38.4022C11.3566 38.0513 11.763 37.7769 12.2135 37.5979L12.3367 37.5531H12.3703L12.4767 37.5195H12.5327L12.6279 37.4915H12.6951H12.7791H12.8631H12.9359H13.0311H13.5911H13.7143H13.7535H13.9103C14.6364 37.6099 15.3035 37.9633 15.8093 38.4974C16.3151 39.0316 16.6316 39.7169 16.7103 40.4483C16.7103 40.5603 16.7103 40.6779 16.7103 40.7955C16.7103 40.7955 16.7103 40.8347 16.7103 40.8515V40.8795C16.7103 40.8795 16.7103 40.9187 16.7103 40.9355C16.7103 40.9355 16.7103 40.9747 16.7103 40.9971L16.7383 41.0475C16.7467 41.0675 16.7603 41.0849 16.7775 41.0979L16.8167 41.1371L16.8671 41.1763L16.9287 41.2043H16.9903H17.0631H17.1583H17.2255H17.2983H17.3599C17.3824 41.1946 17.4032 41.1814 17.4215 41.1651L17.4775 41.1147L17.5111 41.0755C17.5095 41.0644 17.5095 41.0531 17.5111 41.0419C17.5131 41.0271 17.5131 41.012 17.5111 40.9971V40.9523V40.9019C17.5111 40.9019 17.5111 40.8739 17.5111 40.8627V14.7163H45.5167C45.7573 14.7163 45.9881 14.8119 46.1582 14.982C46.3283 15.1522 46.4239 15.3829 46.4239 15.6235V17.6843C46.4239 17.8329 46.4829 17.9753 46.5879 18.0803C46.693 18.1853 46.8354 18.2443 46.9839 18.2443H46.9895Z" fill="white"/>
</svg>
