<svg width="32" height="32" viewBox="0 0 32 32" fill="none" xmlns="http://www.w3.org/2000/svg">
<g clip-path="url(#clip0_1_3356)">
<path d="M17.2604 31.3084C17.2087 31.3084 17.1562 31.3092 17.1046 31.3084C16.8479 31.3026 16.6279 31.0501 16.4154 31.0942C16.1979 31.1392 16.0204 31.3751 15.7704 31.4392C15.1871 31.5892 14.7021 31.4234 14.3204 30.9726C14.2187 30.8517 14.1437 30.7817 13.9696 30.8034C13.4704 30.8676 13.0479 30.6976 12.7312 30.3026C12.6496 30.2001 12.5837 30.2101 12.4704 30.2309C11.5996 30.3959 10.9387 29.9392 10.7796 29.0576C10.7546 28.9176 10.6937 28.8784 10.5746 28.8392C9.6504 28.5351 9.25707 27.6417 9.74873 26.8117C10.0062 26.3776 9.88957 26.0034 9.78457 25.6034C9.72623 25.3817 9.47873 25.3751 9.3029 25.3134C9.17707 25.2692 9.17207 25.4409 9.12123 25.5167C8.83123 25.9459 8.3254 26.1159 7.8354 25.9184C7.45123 25.7642 7.07207 25.5959 6.69957 25.4159C6.16623 25.1584 5.9454 24.5984 6.1829 24.0526C7.01457 22.1451 7.85457 20.2409 8.7029 18.3409C8.94957 17.7884 9.5229 17.5759 10.0837 17.8059C10.4479 17.9551 10.8079 18.1151 11.1637 18.2817C11.7271 18.5459 11.9604 19.1142 11.7012 19.6834C11.5946 19.9176 11.6879 19.9542 11.8554 20.0584C12.3279 20.3526 12.8121 20.3434 13.3221 20.2051C14.1612 19.9767 14.9971 19.8959 15.8054 20.3251C15.8904 20.3701 15.9629 20.3417 16.0387 20.2992C16.9846 19.7692 17.9446 19.8276 18.9121 20.2334C19.0937 20.3092 19.2804 20.3726 19.4587 20.4542C19.8487 20.6326 20.2004 20.5551 20.5454 20.3301C20.6562 20.2576 20.6662 20.1951 20.6296 20.0784C20.3712 19.2517 20.5754 18.8326 21.3737 18.5234C21.6729 18.4076 21.9696 18.2834 22.2712 18.1742C22.8621 17.9609 23.4179 18.1926 23.6471 18.7776C24.4037 20.7051 25.1512 22.6351 25.8921 24.5684C26.1171 25.1551 25.8654 25.7026 25.2854 25.9434C24.9412 26.0859 24.5929 26.2192 24.2429 26.3476C23.6479 26.5651 23.1921 26.4026 22.8729 25.8509C22.8087 25.7401 22.7629 25.7126 22.6412 25.7601C22.3879 25.8584 22.1712 25.9392 22.1521 26.2901C22.1304 26.6817 21.8871 26.9851 21.5462 27.1826C21.4054 27.2642 21.3479 27.3351 21.3537 27.5134C21.3754 28.2001 20.9121 28.7567 20.2329 28.8717C20.0871 28.8967 20.0354 28.9401 19.9962 29.0867C19.8304 29.7042 19.4037 30.0709 18.7854 30.1192C18.6137 30.1326 18.5954 30.2159 18.5562 30.3384C18.3621 30.9401 17.8646 31.3117 17.2604 31.3101V31.3084Z" fill="#0C2C22"/>
<path d="M12.7583 1.99886C13.6783 1.58386 14.5741 1.20386 15.4458 0.775522C15.8566 0.573856 16.1983 0.578022 16.615 0.768856C19.4483 2.06802 22.2916 3.34386 25.1333 4.62386C25.47 4.77552 25.7183 4.97969 25.7166 5.38302C25.7141 5.78552 25.4258 6.09552 25.0225 6.11969C24.8358 6.13052 24.645 6.14719 24.4625 6.11886C24.1258 6.06552 24.0816 6.21636 24.0841 6.51219C24.0966 8.57969 24.0908 10.648 24.0908 12.7164C24.0908 13.2672 24.1016 13.818 24.0858 14.3689C24.0791 14.5914 24.1225 14.6939 24.37 14.6655C24.575 14.6422 24.785 14.6555 24.9925 14.6622C25.3108 14.6739 25.5041 14.8505 25.5083 15.1639C25.5183 15.7972 25.5175 16.4314 25.5083 17.0655C25.5041 17.3614 25.3208 17.543 25.025 17.5739C24.9325 17.5839 24.8383 17.578 24.745 17.578C18.9366 17.578 13.1283 17.578 7.31998 17.578C6.68165 17.578 6.55498 17.4514 6.55498 16.8147C6.55498 16.2947 6.55248 15.7755 6.55498 15.2555C6.55748 14.8414 6.72998 14.6689 7.13665 14.6597C7.40498 14.6539 7.76581 14.7472 7.91665 14.6105C8.09415 14.4505 7.97165 14.083 7.97248 13.8064C7.97665 11.3647 7.97081 8.92219 7.98081 6.48052C7.98165 6.21136 7.93581 6.07635 7.63331 6.12052C7.45998 6.14552 7.28081 6.12886 7.10415 6.12386C6.72831 6.11386 6.44748 5.89969 6.36998 5.56969C6.28248 5.19719 6.43331 4.86136 6.79331 4.69469C7.58331 4.33052 8.37581 3.97219 9.17415 3.62719C9.37331 3.54136 9.45831 3.44219 9.44748 3.21552C9.42665 2.79052 9.44081 2.36386 9.44165 1.93802C9.44165 1.36052 9.58915 1.21052 10.1558 1.21052C10.7583 1.21052 11.3608 1.21052 11.9641 1.21052C12.6158 1.21052 12.7208 1.30886 12.76 2.00052L12.7583 1.99886Z" fill="#0C2C22"/>
<path d="M14.9542 21.0703C14.3725 21.7095 13.7417 22.2345 13.0242 22.6262C12.1742 23.0895 12.2625 23.5578 12.8934 24.1337C13.6509 24.8262 14.5184 24.9003 15.4484 24.5962C15.9492 24.4328 16.44 24.2353 16.9334 24.0495C17.4159 23.8678 17.8575 23.8778 18.3217 24.1687C19.12 24.6678 19.955 25.1103 20.7742 25.5762C20.8284 25.607 20.8817 25.6378 20.935 25.6703C21.1434 25.7953 21.285 25.9595 21.1417 26.2053C21.0025 26.4445 20.7925 26.4245 20.5759 26.302C19.9992 25.9745 19.4225 25.6487 18.845 25.322C18.3809 25.0595 18.0942 25.0837 17.9309 25.3953C17.7767 25.6895 17.9109 25.9412 18.3542 26.1903C18.9225 26.5103 19.4917 26.8303 20.0592 27.152C20.34 27.3112 20.4417 27.532 20.31 27.7237C20.1417 27.9678 19.9284 27.9128 19.7084 27.7887C18.8967 27.3295 18.0842 26.8737 17.2717 26.4153C17.1359 26.3387 17.0009 26.2512 16.8367 26.2787C16.6125 26.317 16.4542 26.4428 16.4084 26.6728C16.3575 26.9312 16.4775 27.1145 16.6975 27.2387C17.3467 27.6062 17.9967 27.9712 18.6459 28.3378C18.7267 28.3837 18.8117 28.4262 18.8842 28.4837C19.045 28.6095 19.0817 28.777 18.9817 28.952C18.88 29.132 18.6959 29.1928 18.5267 29.0945C17.955 28.7628 17.3409 28.4995 16.8225 28.0787C16.555 27.8612 16.2567 27.7303 15.9084 27.7495C15.75 27.7578 15.6567 27.7262 15.5625 27.5753C15.2984 27.1495 14.8975 26.9278 14.3909 26.9387C14.23 26.942 14.1334 26.9137 14.0425 26.7637C13.8075 26.377 13.4492 26.1595 12.995 26.1328C12.86 26.1245 12.8034 26.0787 12.7475 25.9595C12.39 25.2028 11.6825 24.9187 10.915 25.2195C10.8092 25.2612 10.7342 25.3128 10.6817 25.1628C10.55 24.7853 10.2484 24.5903 9.89336 24.472C9.6942 24.4053 9.64253 24.332 9.73753 24.1228C10.2009 23.1053 10.65 22.082 11.0984 21.0578C11.1609 20.9162 11.2075 20.8212 11.3834 20.9328C12.1592 21.4245 12.9784 21.3462 13.8125 21.1178C14.1709 21.0195 14.5392 20.9687 14.9517 21.0703H14.9542Z" fill="#FED65C"/>
<path d="M17.4734 20.9106C17.8584 20.9215 18.2026 21.034 18.5426 21.1623C18.8034 21.2606 19.0617 21.369 19.3259 21.4573C19.8434 21.6306 20.3484 21.6023 20.8192 21.309C20.9776 21.2106 21.0617 21.1865 21.1442 21.4073C21.5384 22.4631 21.9492 23.5131 22.3626 24.5615C22.4242 24.719 22.4084 24.7806 22.2434 24.8598C21.9542 24.9981 21.7342 25.0165 21.4292 24.8248C20.5534 24.2748 19.6301 23.8006 18.7451 23.2648C18.1109 22.8806 17.4642 22.824 16.7801 23.0598C16.2034 23.259 15.6367 23.4848 15.0576 23.6765C14.6442 23.8131 14.2251 23.8373 13.8259 23.599C13.6676 23.5048 13.5951 23.4506 13.8084 23.3156C14.4767 22.8931 15.0701 22.3756 15.6392 21.8265C16.1542 21.329 16.7334 20.9348 17.4726 20.9106H17.4734Z" fill="#FED65C"/>
<path d="M8.20128 24.9983C7.84295 24.8374 7.50128 24.6891 7.16461 24.5299C7.05378 24.4774 7.12128 24.3883 7.15378 24.3158C7.95545 22.4974 8.76045 20.6799 9.55795 18.8599C9.62295 18.7124 9.69211 18.7158 9.81628 18.7749C10.0871 18.9041 10.3604 19.0308 10.6388 19.1399C10.7946 19.2016 10.8088 19.2674 10.7421 19.4166C9.93878 21.2233 9.14295 23.0324 8.34211 24.8408C8.31295 24.9066 8.30045 25.0083 8.20128 24.9983Z" fill="#FED65C"/>
<path d="M22.636 19.1034C22.7793 19.1217 22.7702 19.2659 22.806 19.3575C23.3785 20.8225 23.9452 22.2909 24.5127 23.7575C24.6435 24.095 24.7643 24.4375 24.9077 24.77C24.976 24.9284 24.966 25.0117 24.7918 25.0717C24.5077 25.1692 24.2252 25.2717 23.9518 25.395C23.801 25.4634 23.7543 25.4084 23.706 25.2817C22.991 23.4275 22.2727 21.575 21.5552 19.7217C21.5293 19.6559 21.471 19.5659 21.5568 19.5292C21.9093 19.3792 22.2685 19.2459 22.636 19.1025V19.1034Z" fill="#FED65C"/>
<path d="M12.2095 29.2676C11.8595 29.2718 11.6612 28.9918 11.797 28.7285C12.0578 28.2251 12.3445 27.7351 12.6328 27.2476C12.737 27.0718 12.9153 27.0885 13.0712 27.1751C13.2295 27.2635 13.3212 27.4193 13.237 27.5918C12.9887 28.101 12.7245 28.6026 12.4587 29.1026C12.397 29.2185 12.2778 29.2685 12.2095 29.2676Z" fill="#FED65C"/>
<path d="M13.7961 29.8181C13.5245 29.8148 13.3578 29.5731 13.4761 29.3339C13.6736 28.9356 13.887 28.5456 14.0845 28.1481C14.1961 27.9231 14.377 27.8789 14.5736 27.9798C14.7678 28.0798 14.847 28.2523 14.7295 28.4748C14.5311 28.8489 14.3411 29.2281 14.1445 29.6031C14.072 29.7423 13.9595 29.8231 13.7953 29.8181H13.7961Z" fill="#FED65C"/>
<path d="M11.865 26.5428C11.87 26.5778 11.82 26.6586 11.7733 26.7386C11.5925 27.0528 11.4016 27.3611 11.2316 27.6811C11.1208 27.8894 10.9616 27.9369 10.7683 27.8519C10.5716 27.7653 10.4783 27.5769 10.5666 27.3878C10.75 26.9944 10.9616 26.6128 11.1841 26.2403C11.27 26.0961 11.4383 26.0694 11.6025 26.1253C11.7683 26.1819 11.8466 26.3069 11.8658 26.5428H11.865Z" fill="#FED65C"/>
<path d="M16.3012 29.1616C16.2887 29.2033 16.277 29.2766 16.2445 29.3391C16.077 29.6591 15.9129 29.9816 15.7312 30.2933C15.6095 30.5024 15.417 30.5666 15.2029 30.4358C15.0004 30.3124 14.9804 30.1391 15.0962 29.9299C15.2762 29.6049 15.4437 29.2724 15.6112 28.9408C15.702 28.7608 15.8545 28.7174 16.0279 28.7616C16.2062 28.8074 16.2945 28.9449 16.302 29.1616H16.3012Z" fill="#FED65C"/>
<path d="M17.611 29.9017C17.606 30.1984 17.3893 30.3676 17.1602 30.3034C17.0043 30.2601 16.886 30.1876 17.0235 30.0009C17.066 29.9434 17.0802 29.8609 17.1302 29.8134C17.2068 29.7409 17.1385 29.5134 17.3377 29.5851C17.4985 29.6426 17.6177 29.7659 17.611 29.9017Z" fill="#FED65C"/>
<path d="M23.716 5.09609C23.196 5.19775 23.0918 5.32525 23.091 5.83775C23.091 8.67358 23.0868 11.5094 23.0976 14.3453C23.0985 14.6086 23.0301 14.6644 22.7743 14.6636C20.4893 14.6528 18.2043 14.6519 15.9193 14.6636C15.651 14.6653 15.601 14.5861 15.6026 14.3344C15.6143 12.7344 15.6093 11.1353 15.6085 9.53525C15.6085 9.02775 15.4476 8.86859 14.936 8.86775C13.6476 8.86609 12.3601 8.86609 11.0718 8.86775C10.5826 8.86775 10.416 9.03609 10.4151 9.52025C10.4143 11.1411 10.411 12.7611 10.4193 14.3819C10.4201 14.5903 10.3835 14.6778 10.1535 14.6611C9.85346 14.6394 9.55013 14.6378 9.25096 14.6611C9.0093 14.6803 8.96346 14.5978 8.96513 14.3694C8.9743 12.3128 8.97096 10.2561 8.97096 8.19942C8.97096 7.42025 8.97096 6.64109 8.97096 5.86192C8.97096 5.32609 8.87846 5.20692 8.3418 5.08442C9.30013 4.65109 10.2318 4.22942 11.1635 3.80859C12.701 3.11442 14.241 2.42442 15.7751 1.72275C15.9618 1.63775 16.1076 1.64109 16.2943 1.72609C18.6693 2.80442 21.0485 3.87359 23.426 4.94609C23.5176 4.98775 23.606 5.03775 23.716 5.09359V5.09609Z" fill="#FED65C"/>
<path d="M16.0474 15.6569C18.7699 15.6569 21.4915 15.6602 24.214 15.6519C24.449 15.6519 24.529 15.6977 24.5215 15.9502C24.5024 16.5785 24.5165 16.5794 23.889 16.5794C18.559 16.5794 13.229 16.5769 7.89902 16.586C7.61569 16.586 7.53235 16.5185 7.54402 16.2327C7.56735 15.6585 7.55069 15.6577 8.13069 15.6577H16.0474V15.6569Z" fill="#FED65C"/>
<path d="M14.6127 12.2594C14.6127 12.9761 14.6043 13.6927 14.6177 14.4094C14.6218 14.6177 14.5577 14.6661 14.3585 14.6636C13.4552 14.6527 12.551 14.6527 11.6477 14.6636C11.4502 14.6661 11.4093 14.6086 11.4102 14.4211C11.4185 12.9877 11.4185 11.5536 11.4102 10.1202C11.4093 9.91689 11.461 9.85939 11.6668 9.86189C12.5702 9.87356 13.4743 9.87273 14.3777 9.86189C14.576 9.85939 14.6193 9.92189 14.6168 10.1086C14.6068 10.8252 14.6127 11.5419 14.6127 12.2586V12.2594Z" fill="#FED65C"/>
<path d="M11.1386 2.20252C11.2836 2.20252 11.4286 2.20086 11.5728 2.20252C11.6411 2.20336 11.7286 2.17919 11.7445 2.28419C11.757 2.36669 11.7595 2.45002 11.6611 2.49419C11.2945 2.65836 10.9295 2.82669 10.562 2.98919C10.4978 3.01752 10.4395 3.00419 10.4395 2.91252C10.4395 2.71586 10.4395 2.51919 10.4395 2.32336C10.4395 2.20336 10.5236 2.20086 10.6111 2.20169C10.787 2.20252 10.9628 2.20169 11.1386 2.20169V2.20252Z" fill="#FED65C"/>
<path d="M9.94855 19.9078C9.73439 19.8787 9.60022 19.7587 9.60772 19.5203C9.61522 19.2953 9.75939 19.172 9.96689 19.1695C10.1944 19.1662 10.3444 19.3128 10.3419 19.5403C10.3394 19.7645 10.2011 19.8987 9.94855 19.9078Z" fill="#0C2C22"/>
<path d="M22.3191 20.279C22.0866 20.244 21.9483 20.1232 21.9575 19.8865C21.9658 19.6657 22.1075 19.5373 22.3183 19.5357C22.5475 19.534 22.6933 19.6773 22.6925 19.9073C22.6916 20.1382 22.5425 20.2573 22.3191 20.2798V20.279Z" fill="#0C2C22"/>
<path d="M18.9804 6.72509C19.6037 6.72509 20.227 6.72342 20.8504 6.72509C21.3137 6.72676 21.4779 6.88176 21.4804 7.33259C21.4845 8.23676 21.4854 9.14092 21.4804 10.0451C21.4779 10.4726 21.3012 10.6451 20.867 10.6459C19.5995 10.6501 18.332 10.6501 17.0637 10.6459C16.6279 10.6443 16.4537 10.4734 16.452 10.0459C16.4479 9.14176 16.4487 8.23759 16.452 7.33342C16.4537 6.88426 16.6187 6.72676 17.0795 6.72426C17.7137 6.72176 18.347 6.72426 18.9812 6.72426L18.9804 6.72509Z" fill="#0C2C22"/>
<path d="M18.9403 9.65045C18.5262 9.65045 18.1112 9.64212 17.697 9.65379C17.5162 9.65879 17.4378 9.62129 17.4437 9.41795C17.4578 8.92129 17.4545 8.42295 17.4445 7.92629C17.4412 7.76129 17.4928 7.71795 17.6545 7.71879C18.5245 7.72629 19.3953 7.72712 20.2653 7.71879C20.4437 7.71712 20.492 7.77295 20.4878 7.94629C20.477 8.43295 20.4762 8.92045 20.4878 9.40712C20.4928 9.59545 20.4412 9.66129 20.2445 9.65545C19.8095 9.64129 19.3745 9.65129 18.9387 9.65129L18.9403 9.65045Z" fill="#FED65C"/>
</g>
<defs>
<clipPath id="clip0_1_3356">
<rect width="32" height="32" fill="white"/>
</clipPath>
</defs>
</svg>
