<svg width="20" height="20" viewBox="0 0 20 20" fill="none" xmlns="http://www.w3.org/2000/svg">
<path d="M8.39999 9.04984C8.44166 8.77484 8.53332 8.53317 8.64999 8.32484C8.76666 8.1165 8.93332 7.9415 9.14166 7.80817C9.34166 7.68317 9.59166 7.62484 9.89999 7.6165C10.0917 7.62484 10.2667 7.65817 10.425 7.72484C10.5917 7.79984 10.7417 7.89984 10.8583 8.02484C10.975 8.14984 11.0667 8.29984 11.1417 8.4665C11.2167 8.63317 11.25 8.8165 11.2583 8.99984H12.75C12.7333 8.60817 12.6583 8.24984 12.5167 7.92484C12.375 7.59984 12.1833 7.3165 11.9333 7.08317C11.6833 6.84984 11.3833 6.6665 11.0333 6.53317C10.6833 6.39984 10.3 6.3415 9.87499 6.3415C9.33332 6.3415 8.85832 6.43317 8.45832 6.62484C8.05832 6.8165 7.72499 7.0665 7.45832 7.3915C7.19166 7.7165 6.99166 8.0915 6.86666 8.52484C6.74166 8.95817 6.66666 9.40817 6.66666 9.8915V10.1165C6.66666 10.5998 6.73332 11.0498 6.85832 11.4832C6.98332 11.9165 7.18332 12.2915 7.44999 12.6082C7.71666 12.9248 8.04999 13.1832 8.44999 13.3665C8.84999 13.5498 9.32499 13.6498 9.86666 13.6498C10.2583 13.6498 10.625 13.5832 10.9667 13.4582C11.3083 13.3332 11.6083 13.1582 11.8667 12.9332C12.125 12.7082 12.3333 12.4498 12.4833 12.1498C12.6333 11.8498 12.725 11.5332 12.7333 11.1915H11.2417C11.2333 11.3665 11.1917 11.5248 11.1167 11.6748C11.0417 11.8248 10.9417 11.9498 10.8167 12.0582C10.6917 12.1665 10.55 12.2498 10.3833 12.3082C10.225 12.3665 10.0583 12.3832 9.88332 12.3915C9.58332 12.3832 9.33332 12.3248 9.14166 12.1998C8.93332 12.0665 8.76666 11.8915 8.64999 11.6832C8.53332 11.4748 8.44166 11.2248 8.39999 10.9498C8.35832 10.6748 8.33332 10.3915 8.33332 10.1165V9.8915C8.33332 9.59984 8.35832 9.32484 8.39999 9.04984ZM9.99999 1.6665C5.39999 1.6665 1.66666 5.39984 1.66666 9.99984C1.66666 14.5998 5.39999 18.3332 9.99999 18.3332C14.6 18.3332 18.3333 14.5998 18.3333 9.99984C18.3333 5.39984 14.6 1.6665 9.99999 1.6665ZM9.99999 16.6665C6.32499 16.6665 3.33332 13.6748 3.33332 9.99984C3.33332 6.32484 6.32499 3.33317 9.99999 3.33317C13.675 3.33317 16.6667 6.32484 16.6667 9.99984C16.6667 13.6748 13.675 16.6665 9.99999 16.6665Z" fill="white"/>
</svg>
